<svg width="24" height="25" viewBox="0 0 24 25" fill="none" xmlns="http://www.w3.org/2000/svg">
<path d="M17 20.2949C18.1046 20.2949 19 19.3995 19 18.2949C19 17.1904 18.1046 16.2949 17 16.2949C15.8954 16.2949 15 17.1904 15 18.2949C15 19.3995 15.8954 20.2949 17 20.2949Z" stroke="#008000" stroke-width="1.5"/>
<path d="M7 20.2949C8.10457 20.2949 9 19.3995 9 18.2949C9 17.1904 8.10457 16.2949 7 16.2949C5.89543 16.2949 5 17.1904 5 18.2949C5 19.3995 5.89543 20.2949 7 20.2949Z" stroke="#008000" stroke-width="1.5"/>
<path d="M5 18.2673C3.90328 18.2127 3.2191 18.0495 2.73223 17.5627C2.24536 17.0758 2.08222 16.3916 2.02755 15.2949M9 18.2949H15M19 18.2673C20.0967 18.2127 20.7809 18.0495 21.2678 17.5627C22 16.8304 22 15.6519 22 13.2949V11.2949H17.3C16.5555 11.2949 16.1832 11.2949 15.882 11.197C15.2731 10.9992 14.7957 10.5218 14.5979 9.91295C14.5 9.61169 14.5 9.23943 14.5 8.49492C14.5 7.37815 14.5 6.81977 14.3532 6.36787C14.0564 5.45456 13.3404 4.7385 12.4271 4.44175C11.9752 4.29492 11.4168 4.29492 10.3 4.29492H2" stroke="#008000" stroke-width="1.5" stroke-linecap="round" stroke-linejoin="round"/>
<path d="M2 8.29492H8" stroke="#008000" stroke-width="1.5" stroke-linecap="round" stroke-linejoin="round"/>
<path d="M2 11.2949H6" stroke="#008000" stroke-width="1.5" stroke-linecap="round" stroke-linejoin="round"/>
<path d="M14.5 6.29492H16.3212C17.7766 6.29492 18.5042 6.29492 19.0964 6.64863C19.6886 7.00234 20.0336 7.64303 20.7236 8.92442L22 11.2949" stroke="#008000" stroke-width="1.5" stroke-linecap="round" stroke-linejoin="round"/>
</svg>
