<svg width="151" height="150" viewBox="0 0 151 150" fill="none" xmlns="http://www.w3.org/2000/svg">
<path d="M79.2783 22.5645C79.5736 22.4791 79.8881 22.4789 80.1836 22.5635L131.746 36.9531L131.879 36.9961C132.528 37.2376 132.967 37.8586 132.967 38.5625V110.82C132.967 111.628 132.389 112.319 131.597 112.466H131.595L80.0322 121.841L80.0234 121.843C79.9326 121.858 79.8358 121.867 79.7324 121.867C79.629 121.867 79.5331 121.857 79.4424 121.843L79.4326 121.841L64.2461 119.076C63.338 118.91 62.7344 118.038 62.9014 117.13C63.0697 116.214 63.9446 115.639 64.835 115.783L64.8447 115.785L78.0615 118.192V26.376L29.8418 39.832V77.2568C41.3475 76.0729 52.9782 76.1597 64.4629 77.5527H64.4619C64.9573 77.6118 65.3997 77.8898 65.6689 78.3105L71.707 87.7217C71.9748 88.1395 72.0438 88.6562 71.8936 89.1299C67.4726 103.04 57.8652 117.257 46.8037 126.251L46.8027 126.25C46.4949 126.502 46.1211 126.626 45.749 126.626C45.3768 126.626 45.0023 126.502 44.6943 126.25V126.251C33.6317 117.257 24.0252 103.04 19.6055 89.1299C19.4553 88.6562 19.5242 88.1395 19.792 87.7217L25.8301 78.3105C26.0003 78.0444 26.2368 77.8526 26.499 77.7285V38.5625C26.4991 37.8111 26.9995 37.1551 27.7217 36.9531L79.2783 22.5654V22.5645ZM31.874 119.585C32.5096 119.113 33.3913 119.154 33.9814 119.681L34.1035 119.801L34.1045 119.802C34.726 120.484 34.6769 121.541 33.9941 122.162L29.6396 126.137L29.6387 126.136C29.318 126.43 28.9141 126.574 28.5127 126.574C28.0599 126.574 27.6079 126.391 27.2773 126.029V126.028C26.6558 125.346 26.7036 124.288 27.3867 123.667L31.7412 119.694L31.874 119.585ZM57.3945 119.802C58.0182 119.118 59.0763 119.067 59.7588 119.695H59.7578L64.1123 123.667H64.1113C64.7946 124.288 64.8437 125.346 64.2217 126.028L64.2207 126.029C63.8902 126.391 63.4389 126.574 62.9863 126.574C62.5848 126.574 62.1801 126.43 61.8594 126.136V126.137L57.5039 122.163C56.8211 121.542 56.7726 120.484 57.3945 119.802ZM81.4053 118.193L129.624 109.426V39.832L118.905 36.8418V51.875C118.905 53.0561 118.387 54.1749 117.485 54.9385C116.754 55.5578 115.836 55.8906 114.892 55.8906C114.782 55.8906 114.671 55.8861 114.561 55.877L114.23 55.835L104.855 54.2744H104.854C102.912 53.9478 101.499 52.282 101.499 50.3135V31.9834L81.4053 26.376V118.193ZM24.8291 108.709C25.6596 108.564 26.4904 109.073 26.7246 109.905C26.9588 110.738 26.5171 111.603 25.7275 111.912L25.5654 111.966L21.623 113.07L21.624 113.071C21.4727 113.114 21.3202 113.134 21.1709 113.134C20.4406 113.134 19.7701 112.651 19.5625 111.913C19.3283 111.08 19.7701 110.216 20.5596 109.906L20.7227 109.852L24.6631 108.747L24.8291 108.709ZM64.7744 109.904C65.0253 109.018 65.9544 108.498 66.833 108.746H66.834L70.7764 109.852L70.9385 109.906C71.728 110.216 72.1699 111.08 71.9355 111.913C71.7281 112.651 71.0573 113.134 70.3271 113.134C70.1779 113.134 70.0255 113.114 69.874 113.071V113.07L65.9326 111.966C65.0431 111.717 64.5238 110.794 64.7734 109.905L64.7744 109.904ZM104.843 50.3135C104.843 50.6414 105.075 50.9189 105.405 50.9756H105.406L114.779 52.5371H114.783C114.974 52.5703 115.167 52.5191 115.326 52.3857C115.48 52.2552 115.562 52.0772 115.562 51.874V35.9072L104.843 32.917V50.3135Z" fill="#E9B824" stroke="#E9B824"/>
<path d="M34 100.667C34 100.667 37.125 100.667 40.25 107C40.25 107 50.1766 91.1667 59 88" stroke="white" stroke-width="3" stroke-linecap="round" stroke-linejoin="round"/>
</svg>
