<svg width="24" height="25" viewBox="0 0 24 25" fill="none" xmlns="http://www.w3.org/2000/svg">
<path d="M12 22.2949C11.1818 22.2949 10.4002 21.9647 8.83693 21.3044C4.94564 19.6606 3 18.8387 3 17.4562C3 17.0691 3 10.3594 3 7.29492M12 22.2949C12.8182 22.2949 13.5998 21.9647 15.1631 21.3044C19.0544 19.6606 21 18.8387 21 17.4562V7.29492M12 22.2949V11.6497" stroke="#6C6C6C" stroke-width="1.5" stroke-linecap="round" stroke-linejoin="round"/>
<path d="M8.32592 9.9863L5.40472 8.57277C3.80157 7.79702 3 7.40915 3 6.79492C3 6.18069 3.80157 5.79282 5.40472 5.01707L8.32592 3.60354C10.1288 2.73113 11.0303 2.29492 12 2.29492C12.9697 2.29492 13.8712 2.73112 15.6741 3.60354L18.5953 5.01707C20.1984 5.79282 21 6.18069 21 6.79492C21 7.40915 20.1984 7.79702 18.5953 8.57277L15.6741 9.9863C13.8712 10.8587 12.9697 11.2949 12 11.2949C11.0303 11.2949 10.1288 10.8587 8.32592 9.9863Z" stroke="#6C6C6C" stroke-width="1.5" stroke-linecap="round" stroke-linejoin="round"/>
<path d="M6 12.2949L8 13.2949" stroke="#6C6C6C" stroke-width="1.5" stroke-linecap="round" stroke-linejoin="round"/>
<path d="M17 4.29492L7 9.29492" stroke="#6C6C6C" stroke-width="1.5" stroke-linecap="round" stroke-linejoin="round"/>
</svg>
