<svg width="24" height="25" viewBox="0 0 24 25" fill="none" xmlns="http://www.w3.org/2000/svg">
<path d="M22 12.3838V9.5307C22 7.58669 22 6.6147 21.4142 6.01076C20.8284 5.40684 19.8856 5.40684 18 5.40684H15.9214C15.004 5.40684 14.9964 5.40505 14.1715 4.9913L10.8399 3.32032C9.44884 2.62265 8.75332 2.27381 8.01238 2.29806C7.27143 2.3223 6.59877 2.7159 5.25345 3.50311L4.02558 4.22159C3.03739 4.79982 2.54329 5.08894 2.27164 5.56991C2 6.05088 2 6.63661 2 7.80805V16.0436C2 17.5828 2 18.3524 2.34226 18.7808C2.57001 19.0657 2.88916 19.2574 3.242 19.3209C3.77226 19.4163 4.42148 19.0365 5.71987 18.2766C6.60156 17.7608 7.45011 17.225 8.50487 17.3703C9.38869 17.492 10.21 18.0509 11 18.4471" stroke="#2B2B2A" stroke-width="1.5" stroke-linecap="round" stroke-linejoin="round"/>
<path d="M8 2.29688V17.3308" stroke="#2B2B2A" stroke-width="1.5" stroke-linejoin="round"/>
<path d="M15 5.30371V11.3173" stroke="#2B2B2A" stroke-width="1.5" stroke-linecap="round" stroke-linejoin="round"/>
<path d="M20.1069 20.4704L21.9521 22.2934M21.1691 17.9331C21.1691 19.8998 19.5752 21.4941 17.609 21.4941C15.6428 21.4941 14.0488 19.8998 14.0488 17.9331C14.0488 15.9664 15.6428 14.3721 17.609 14.3721C19.5752 14.3721 21.1691 15.9664 21.1691 17.9331Z" stroke="#2B2B2A" stroke-width="1.5" stroke-linecap="round"/>
</svg>
