<svg width="24" height="25" viewBox="0 0 24 25" fill="none" xmlns="http://www.w3.org/2000/svg">
<path d="M18 18.2949C19.2447 18.7193 20 19.2768 20 19.8874C20 21.217 16.4183 22.2949 12 22.2949C7.58172 22.2949 4 21.217 4 19.8874C4 19.2768 4.75527 18.7193 6 18.2949" stroke="#6C6C6C" stroke-width="1.5" stroke-linecap="round"/>
<path d="M15 9.79492C15 11.4518 13.6569 12.7949 12 12.7949C10.3431 12.7949 9 11.4518 9 9.79492C9 8.13807 10.3431 6.79492 12 6.79492C13.6569 6.79492 15 8.13807 15 9.79492Z" stroke="#6C6C6C" stroke-width="1.5"/>
<path d="M12 2.29492C16.0588 2.29492 19.5 5.72295 19.5 9.88182C19.5 14.1069 16.0028 17.0719 12.7725 19.0881C12.5371 19.2236 12.2709 19.2949 12 19.2949C11.7291 19.2949 11.4629 19.2236 11.2275 19.0881C8.00325 17.0522 4.5 14.1215 4.5 9.88182C4.5 5.72295 7.9412 2.29492 12 2.29492Z" stroke="#6C6C6C" stroke-width="1.5"/>
</svg>
