<svg width="375" height="375" viewBox="0 0 375 375" fill="none" xmlns="http://www.w3.org/2000/svg">
<path d="M223.815 340.882L123.412 340.417C111.337 340.365 101.595 330.262 101.662 317.85L102.75 59.205C102.802 46.7925 112.635 36.765 124.717 36.825L225.12 37.29C237.195 37.3425 246.937 47.445 246.87 59.8575L245.775 318.503C245.73 330.915 235.897 340.942 223.815 340.882Z" fill="#263238"/>
<path d="M238.912 273.097C238.912 273.535 238.782 273.963 238.539 274.327C238.296 274.691 237.95 274.975 237.545 275.142C237.14 275.309 236.695 275.353 236.266 275.267C235.836 275.181 235.442 274.969 235.133 274.659C234.824 274.349 234.614 273.954 234.529 273.524C234.445 273.095 234.489 272.65 234.658 272.245C234.827 271.841 235.111 271.496 235.476 271.254C235.841 271.012 236.27 270.883 236.707 270.885C237.293 270.887 237.854 271.121 238.267 271.535C238.68 271.95 238.912 272.512 238.912 273.097Z" fill="#E0E0E0"/>
<path d="M236.707 277.95C236.447 276.343 236.447 274.705 236.707 273.098C236.967 274.705 236.967 276.343 236.707 277.95Z" fill="#E0E0E0"/>
<path d="M227.122 45.8252L207.045 45.7502C206.39 45.7619 205.744 45.9026 205.143 46.1641C204.542 46.4256 203.999 46.8029 203.544 47.2744C203.09 47.7459 202.732 48.3024 202.492 48.9121C202.253 49.5218 202.135 50.1727 202.147 50.8277V54.4652C202.167 55.7855 201.663 57.0598 200.745 58.0088C199.827 58.9578 198.57 59.504 197.25 59.5277L158.107 59.3477C156.785 59.3104 155.532 58.7502 154.622 57.7898C153.712 56.8295 153.221 55.5476 153.255 54.2252V50.5877C153.273 49.9327 153.162 49.2805 152.927 48.6685C152.693 48.0565 152.341 47.4967 151.89 47.021C151.439 46.5452 150.9 46.163 150.301 45.896C149.703 45.6291 149.057 45.4827 148.402 45.4652H141.337L123.75 45.3527C121.673 45.3428 119.615 45.7426 117.693 46.5292C115.771 47.3157 114.023 48.4736 112.549 49.9365C111.075 51.3994 109.903 53.1386 109.102 55.0547C108.301 56.9707 107.886 59.026 107.88 61.1027L106.807 314.52C106.798 316.597 107.197 318.655 107.984 320.577C108.77 322.499 109.928 324.247 111.391 325.722C112.854 327.196 114.593 328.367 116.509 329.168C118.425 329.969 120.481 330.384 122.557 330.39L225.915 330.87C227.991 330.879 230.049 330.479 231.971 329.692C233.893 328.905 235.64 327.747 237.114 326.284C238.588 324.822 239.759 323.083 240.561 321.167C241.362 319.251 241.778 317.197 241.785 315.12L242.85 61.6952C242.866 57.506 241.219 53.4817 238.27 50.5062C235.321 47.5306 231.312 45.847 227.122 45.8252Z" fill="#FAFAFA"/>
<path d="M113.685 245.805C114.57 245.145 157.793 226.102 157.793 226.102L107.303 200.917L107.13 241.5L113.685 245.805Z" fill="#EBEBEB"/>
<path d="M116.325 200.138L153.157 181.418L113.58 159.473L107.475 161.003L107.325 196.508L116.325 200.138Z" fill="#FFC100"/>
<path opacity="0.7" d="M116.325 200.138L153.157 181.418L113.58 159.473L107.475 161.003L107.325 196.508L116.325 200.138Z" fill="white"/>
<path d="M108.802 156.923L222.33 103.898L109.852 67.1401L108.802 156.923Z" fill="#EBEBEB"/>
<path d="M107.482 295.013L159.36 268.388L236.587 313.823L218.19 329.955H152.287L107.482 302.573V295.013Z" fill="#EBEBEB"/>
<path d="M169.575 265.508L233.73 303.548L240.885 302.738V266.16L205.725 247.553L169.575 265.508Z" fill="#EBEBEB"/>
<path d="M180.12 229.185L240.607 263.212V218.73L218.722 209.355L180.12 229.185Z" fill="#EBEBEB"/>
<path d="M115.515 247.935L150.998 267.405L194.063 245.1L159.848 227.7L115.515 247.935Z" fill="#EBEBEB"/>
<path d="M168.78 181.17L219.045 206.077L242.355 194.175L242.505 177.48L208.552 161.002L168.78 181.17Z" fill="#EBEBEB"/>
<path d="M117.375 202.897L167.64 227.805L190.95 215.902L191.1 199.207L157.14 182.73L117.375 202.897Z" fill="#EBEBEB"/>
<path d="M124.335 158.13L165.3 178.642L203.505 158.13L163.92 140.07L124.335 158.13Z" fill="#EBEBEB"/>
<path d="M203.505 289.215C203.245 289.111 202.994 288.986 202.755 288.84L200.64 287.648L192.502 282.945L162.382 265.283L161.76 264.915L162.405 264.585L201.922 244.5V245.415L172.417 229.665L171.487 229.17L172.425 228.675L213.405 207.165V208.208L208.515 205.733L116.715 159.158L115.852 158.723L116.73 158.303L165.48 135.053L178.98 128.685L182.535 127.05L183.457 126.645C183.561 126.597 183.669 126.559 183.78 126.533C183.691 126.606 183.593 126.667 183.487 126.713L182.602 127.178L179.085 129L165.675 135.608L117.142 159.21V158.325L209.04 204.698L213.93 207.173L214.942 207.69L213.937 208.215L172.927 229.68V228.69L202.395 244.5L203.265 244.965L202.387 245.408L162.75 265.298V264.6L192.69 282.6L200.715 287.483L202.777 288.773C203.034 288.896 203.278 289.044 203.505 289.215Z" fill="#FFC100"/>
<path d="M194.692 102.48C194.692 94.9798 186.832 90.2548 178.815 94.0048C177.004 94.8524 175.522 96.2731 174.6 98.0473C172.582 101.955 173.475 106.417 175.297 110.122L181.537 125.932C181.733 126.438 182.076 126.873 182.524 127.18C182.971 127.487 183.5 127.651 184.042 127.651C184.585 127.651 185.114 127.487 185.561 127.18C186.008 126.873 186.352 126.438 186.547 125.932L192.66 110.04C194.782 105.18 194.692 102.48 194.692 102.48ZM187.192 108.99C181.8 112.125 176.34 106.335 179.295 100.62C179.683 99.8658 180.275 99.2366 181.005 98.8048C186.397 95.6698 191.857 101.46 188.902 107.175C188.507 107.933 187.903 108.562 187.162 108.99H187.192Z" fill="#FFC100"/>
<path d="M182.722 184.335L182.542 175.5L205.575 186.652V195.832L182.722 184.335Z" fill="#F5F5F5"/>
<path d="M205.575 186.652L234.18 172.44V182.332L205.575 195.832V186.652Z" fill="#E0E0E0"/>
<path d="M182.542 175.5L210.615 161.46L234.18 172.44L205.575 186.652L182.542 175.5Z" fill="#F5F5F5"/>
<path d="M185.55 179.317V183.6L187.8 184.612V180.517L185.55 179.317Z" fill="#FAFAFA"/>
<path d="M189.15 180.9V185.19L191.407 186.202V182.107L189.15 180.9Z" fill="#FAFAFA"/>
<path d="M110.257 128.587V117.09L137.52 130.297V141.157L110.257 128.587Z" fill="#E0E0E0"/>
<path d="M137.52 130.297L171.39 113.467V125.182L137.52 141.157V130.297Z" fill="#F5F5F5"/>
<path d="M110.257 117.09L143.482 100.478L171.39 113.468L137.52 130.298L110.257 117.09Z" fill="#FAFAFA"/>
<path d="M113.82 121.605V126.682L116.482 127.882V123.03L113.82 121.605Z" fill="#FAFAFA"/>
<path d="M118.08 123.487V128.557L120.75 129.765V124.912L118.08 123.487Z" fill="#FAFAFA"/>
<path d="M192.443 224.692V233.752L202.193 238.545V229.185L192.443 224.692Z" fill="#E0E0E0"/>
<path d="M214.567 223.252L202.155 229.185V238.545L214.567 231.615V223.252Z" fill="#E0E0E0"/>
<path d="M192.443 224.692L204.743 218.73L214.568 223.252L202.155 229.185L192.443 224.692Z" fill="#F5F5F5"/>
<path d="M195.892 231.195V235.477L198.142 236.497V232.402L195.892 231.195Z" fill="#FAFAFA"/>
<path d="M113.955 220.005V229.065L123.667 233.857V224.497L113.955 220.005Z" fill="#E0E0E0"/>
<path d="M136.087 218.565L123.667 224.497V233.857L136.087 226.927V218.565Z" fill="#E0E0E0"/>
<path d="M113.955 220.005L126.262 214.042L136.087 218.565L123.667 224.497L113.955 220.005Z" fill="#F5F5F5"/>
<path d="M117.405 226.507V230.79L119.655 231.81V227.715L117.405 226.507Z" fill="#FAFAFA"/>
<path d="M154.237 160.2V169.268L163.95 174.06V164.7L154.237 160.2Z" fill="#F5F5F5"/>
<path d="M176.37 158.768L163.95 164.7V174.06L176.37 167.13V158.768Z" fill="#E0E0E0"/>
<path d="M154.237 160.2L166.545 154.245L176.37 158.768L163.95 164.7L154.237 160.2Z" fill="#F5F5F5"/>
<path d="M157.688 166.71V170.992L159.938 172.012V167.91L157.688 166.71Z" fill="#E0E0E0"/>
<path d="M143.438 237.848V246.915L153.15 251.7V242.348L143.438 237.848Z" fill="#E0E0E0"/>
<path d="M165.57 236.407L153.157 242.347V251.7L165.57 244.777V236.407Z" fill="#EBEBEB"/>
<path d="M143.438 237.848L155.745 231.893L165.57 236.408L153.158 242.348L143.438 237.848Z" fill="#F5F5F5"/>
<path d="M146.887 244.35V248.64L149.137 249.653V245.558L146.887 244.35Z" fill="#FAFAFA"/>
<path d="M183.547 259.74V271.103L204 283.155V271.425L183.547 259.74Z" fill="#F5F5F5"/>
<path d="M219.592 263.04L204.022 271.425V283.155L219.592 274.47V263.04Z" fill="#E0E0E0"/>
<path d="M183.547 259.733L198.982 252.263L219.592 263.04L204.022 271.425L183.547 259.733Z" fill="#FAFAFA"/>
<path d="M191.28 270.248V275.618L194.107 277.313V272.003L191.28 270.248Z" fill="#FAFAFA"/>
<path d="M134.295 283.125V294.487L154.77 306.548V294.81L134.295 283.125Z" fill="#E0E0E0"/>
<path d="M179.205 281.572L154.77 294.81V306.547L179.272 292.965L179.205 281.572Z" fill="#FAFAFA"/>
<path d="M134.295 283.125L160.14 270.607L179.272 281.617L154.77 294.81L134.295 283.125Z" fill="#F5F5F5"/>
<path d="M142.027 293.632V299.01L144.847 300.705V295.387L142.027 293.632Z" fill="#FAFAFA"/>
<path d="M211.8 240.638V286.02L224.58 292.628V246.675L211.8 240.638Z" fill="#F5F5F5"/>
<path d="M221.242 236.288L211.8 240.638L224.58 246.675L233.175 241.83L221.242 236.288Z" fill="#FAFAFA"/>
<path d="M224.58 246.675V292.628L232.357 288.443L233.175 241.83L224.58 246.675Z" fill="#E0E0E0"/>
<path d="M157.792 203.88V249.262L170.572 255.87V209.917L157.792 203.88Z" fill="#F5F5F5"/>
<path d="M167.227 199.522L157.792 203.88L170.572 209.917L179.167 205.072L167.227 199.522Z" fill="#FAFAFA"/>
<path d="M170.573 209.917V255.87L178.343 252.037L179.168 205.072L170.573 209.917Z" fill="#E0E0E0"/>
<path d="M163.59 290.183V301.545L184.072 313.605V301.875L163.59 290.183Z" fill="#E0E0E0"/>
<path d="M199.635 293.49L184.073 301.875V313.605L199.635 304.92V293.49Z" fill="#FAFAFA"/>
<path d="M163.59 290.182L179.205 281.572L199.635 293.49L184.072 301.875L163.59 290.182Z" fill="#F5F5F5"/>
<path d="M171.323 300.69V306.067L174.15 307.762V302.445L171.323 300.69Z" fill="#FAFAFA"/>
<path d="M209.13 154.71L171.84 137.903L223.77 111.473L240.81 136.883L209.13 154.71Z" fill="#EBEBEB"/>
<path d="M242.325 170.145L242.58 141.045L213.667 157.5L242.325 170.145Z" fill="#FFC100"/>
<path d="M220.357 199.29C220.35 199.726 220.214 200.15 219.966 200.509C219.719 200.868 219.371 201.145 218.966 201.307C218.561 201.469 218.117 201.507 217.691 201.418C217.264 201.328 216.873 201.115 216.568 200.804C216.262 200.493 216.055 200.099 215.973 199.671C215.89 199.242 215.936 198.8 216.105 198.397C216.273 197.995 216.557 197.652 216.92 197.41C217.283 197.169 217.709 197.04 218.145 197.04C218.735 197.05 219.298 197.291 219.712 197.712C220.126 198.133 220.357 198.7 220.357 199.29Z" fill="#E0E0E0"/>
<path d="M218.145 204.143C217.885 202.535 217.885 200.897 218.145 199.29C218.405 200.897 218.405 202.535 218.145 204.143Z" fill="#E0E0E0"/>
<path d="M160.005 193.867C160.005 194.313 159.873 194.748 159.626 195.118C159.379 195.488 159.027 195.776 158.616 195.946C158.205 196.117 157.753 196.161 157.316 196.074C156.88 195.987 156.479 195.773 156.164 195.459C155.849 195.144 155.635 194.743 155.548 194.306C155.461 193.87 155.506 193.418 155.676 193.006C155.847 192.595 156.135 192.244 156.505 191.997C156.875 191.749 157.31 191.618 157.755 191.618C158.052 191.612 158.347 191.667 158.622 191.778C158.897 191.89 159.147 192.055 159.357 192.265C159.567 192.475 159.733 192.725 159.844 193C159.955 193.276 160.01 193.571 160.005 193.867Z" fill="#E0E0E0"/>
<path d="M157.792 198.75C157.533 197.143 157.533 195.505 157.792 193.897C158.052 195.505 158.052 197.143 157.792 198.75Z" fill="#E0E0E0"/>
<path d="M130.44 224.753C130.44 225.19 130.31 225.618 130.067 225.982C129.824 226.346 129.478 226.629 129.074 226.797C128.67 226.964 128.225 227.008 127.796 226.923C127.367 226.837 126.972 226.626 126.663 226.317C126.354 226.008 126.143 225.613 126.058 225.184C125.972 224.755 126.016 224.31 126.183 223.906C126.351 223.502 126.634 223.156 126.998 222.913C127.362 222.67 127.79 222.54 128.228 222.54C128.814 222.54 129.377 222.773 129.792 223.188C130.207 223.603 130.44 224.166 130.44 224.753Z" fill="#E0E0E0"/>
<path d="M128.25 229.605C127.99 227.998 127.99 226.359 128.25 224.752C128.51 226.359 128.51 227.998 128.25 229.605Z" fill="#E0E0E0"/>
<path d="M132.652 200.917C132.652 201.353 132.523 201.78 132.282 202.143C132.04 202.506 131.697 202.789 131.295 202.958C130.893 203.126 130.45 203.172 130.022 203.09C129.594 203.007 129.2 202.8 128.889 202.495C128.578 202.189 128.364 201.798 128.275 201.372C128.185 200.945 128.224 200.501 128.385 200.096C128.547 199.691 128.825 199.343 129.184 199.096C129.542 198.848 129.966 198.712 130.402 198.705C130.696 198.7 130.988 198.753 131.261 198.862C131.533 198.971 131.782 199.134 131.991 199.34C132.201 199.545 132.367 199.791 132.48 200.062C132.594 200.333 132.652 200.624 132.652 200.917Z" fill="#E0E0E0"/>
<path d="M130.44 205.77C130.18 204.163 130.18 202.525 130.44 200.917C130.7 202.525 130.7 204.163 130.44 205.77Z" fill="#E0E0E0"/>
<path d="M187.252 198.75C187.261 199.199 187.136 199.639 186.893 200.016C186.649 200.393 186.299 200.688 185.886 200.864C185.474 201.04 185.018 201.089 184.578 201.004C184.137 200.92 183.732 200.705 183.415 200.389C183.097 200.072 182.881 199.668 182.795 199.228C182.709 198.787 182.756 198.332 182.931 197.919C183.105 197.505 183.399 197.154 183.775 196.909C184.151 196.665 184.592 196.538 185.04 196.545C185.625 196.545 186.187 196.777 186.602 197.191C187.017 197.604 187.251 198.165 187.252 198.75Z" fill="#E0E0E0"/>
<path d="M185.04 203.58C184.78 201.973 184.78 200.335 185.04 198.728C185.3 200.335 185.3 201.973 185.04 203.58Z" fill="#E0E0E0"/>
<path d="M222.195 215.302C222.195 215.74 222.065 216.168 221.822 216.532C221.579 216.895 221.233 217.179 220.829 217.346C220.425 217.514 219.98 217.558 219.551 217.472C219.122 217.387 218.727 217.176 218.418 216.867C218.109 216.557 217.898 216.163 217.813 215.734C217.727 215.305 217.771 214.86 217.938 214.456C218.106 214.051 218.389 213.706 218.753 213.463C219.117 213.22 219.545 213.09 219.983 213.09C220.569 213.09 221.132 213.323 221.547 213.738C221.962 214.153 222.195 214.716 222.195 215.302Z" fill="#E0E0E0"/>
<path d="M219.982 220.155C219.722 218.548 219.722 216.909 219.982 215.302C220.242 216.909 220.242 218.548 219.982 220.155Z" fill="#E0E0E0"/>
<path d="M223.605 228.315C223.605 228.753 223.475 229.18 223.232 229.544C222.989 229.908 222.643 230.192 222.239 230.359C221.835 230.527 221.39 230.57 220.961 230.485C220.532 230.4 220.137 230.189 219.828 229.88C219.519 229.57 219.308 229.176 219.222 228.747C219.137 228.317 219.181 227.873 219.348 227.468C219.516 227.064 219.799 226.719 220.163 226.475C220.527 226.232 220.955 226.103 221.392 226.103C221.979 226.103 222.542 226.336 222.957 226.751C223.372 227.165 223.605 227.728 223.605 228.315Z" fill="#E0E0E0"/>
<path d="M221.392 233.167C221.133 231.56 221.133 229.922 221.392 228.315C221.652 229.922 221.652 231.56 221.392 233.167Z" fill="#E0E0E0"/>
<path d="M161.572 255.315C161.572 255.751 161.444 256.177 161.202 256.54C160.961 256.903 160.617 257.187 160.215 257.355C159.813 257.524 159.37 257.57 158.942 257.487C158.514 257.405 158.12 257.198 157.809 256.892C157.498 256.586 157.284 256.196 157.195 255.769C157.105 255.342 157.144 254.899 157.305 254.494C157.467 254.089 157.745 253.741 158.104 253.493C158.463 253.246 158.887 253.11 159.322 253.102C159.616 253.097 159.908 253.151 160.181 253.26C160.453 253.369 160.702 253.531 160.911 253.737C161.121 253.943 161.287 254.189 161.401 254.459C161.514 254.73 161.572 255.021 161.572 255.315Z" fill="#E0E0E0"/>
<path d="M159.36 260.167C159.1 258.56 159.1 256.922 159.36 255.315C159.62 256.922 159.62 258.56 159.36 260.167Z" fill="#E0E0E0"/>
<path d="M232.042 296.1C233.264 296.1 234.255 295.109 234.255 293.887C234.255 292.665 233.264 291.675 232.042 291.675C230.821 291.675 229.83 292.665 229.83 293.887C229.83 295.109 230.821 296.1 232.042 296.1Z" fill="#E0E0E0"/>
<path d="M232.042 298.74C231.783 297.133 231.783 295.495 232.042 293.888C232.302 295.495 232.302 297.133 232.042 298.74Z" fill="#E0E0E0"/>
<path d="M192 318.082C192.007 318.531 191.881 318.971 191.636 319.346C191.392 319.722 191.041 320.016 190.628 320.191C190.216 320.366 189.76 320.414 189.32 320.328C188.88 320.243 188.476 320.028 188.159 319.711C187.842 319.394 187.627 318.989 187.542 318.549C187.456 318.11 187.504 317.654 187.679 317.241C187.854 316.829 188.148 316.478 188.523 316.233C188.899 315.989 189.339 315.863 189.787 315.87C190.374 315.87 190.937 316.103 191.352 316.518C191.767 316.933 192 317.496 192 318.082Z" fill="#E0E0E0"/>
<path d="M189.75 322.935C189.49 321.328 189.49 319.69 189.75 318.083C190.01 319.69 190.01 321.328 189.75 322.935Z" fill="#E0E0E0"/>
<path d="M174.945 311.4C174.945 311.838 174.815 312.265 174.572 312.629C174.329 312.993 173.983 313.277 173.579 313.444C173.175 313.612 172.73 313.655 172.301 313.57C171.872 313.485 171.477 313.274 171.168 312.964C170.859 312.655 170.648 312.261 170.563 311.832C170.477 311.402 170.521 310.958 170.688 310.553C170.856 310.149 171.139 309.803 171.503 309.56C171.867 309.317 172.295 309.188 172.733 309.188C173.319 309.188 173.882 309.421 174.297 309.836C174.712 310.25 174.945 310.813 174.945 311.4Z" fill="#E0E0E0"/>
<path d="M172.732 316.252C172.472 314.645 172.472 313.007 172.732 311.4C173.002 313.006 173.002 314.646 172.732 316.252Z" fill="#E0E0E0"/>
<path d="M214.012 306.548C214.012 306.993 213.88 307.428 213.633 307.798C213.386 308.168 213.035 308.456 212.623 308.626C212.212 308.797 211.76 308.841 211.324 308.754C210.887 308.668 210.486 308.453 210.171 308.139C209.857 307.824 209.643 307.423 209.556 306.987C209.469 306.55 209.513 306.098 209.684 305.687C209.854 305.275 210.142 304.924 210.512 304.677C210.882 304.43 211.317 304.298 211.762 304.298C212.059 304.293 212.354 304.347 212.629 304.459C212.905 304.57 213.155 304.735 213.365 304.945C213.575 305.155 213.74 305.405 213.852 305.681C213.963 305.956 214.018 306.251 214.012 306.548Z" fill="#E0E0E0"/>
<path d="M211.8 311.4C211.54 309.793 211.54 308.154 211.8 306.547C212.06 308.154 212.06 309.793 211.8 311.4Z" fill="#E0E0E0"/>
<path d="M178.492 266.153C179.714 266.153 180.705 265.162 180.705 263.94C180.705 262.718 179.714 261.728 178.492 261.728C177.27 261.728 176.28 262.718 176.28 263.94C176.28 265.162 177.27 266.153 178.492 266.153Z" fill="#E0E0E0"/>
<path d="M178.5 268.792C178.24 267.185 178.24 265.547 178.5 263.94C178.76 265.547 178.76 267.185 178.5 268.792Z" fill="#E0E0E0"/>
<path d="M186.285 242.347C186.285 242.785 186.155 243.213 185.912 243.576C185.669 243.94 185.323 244.224 184.919 244.391C184.515 244.559 184.07 244.603 183.641 244.517C183.212 244.432 182.817 244.221 182.508 243.912C182.199 243.602 181.988 243.208 181.902 242.779C181.817 242.35 181.861 241.905 182.028 241.501C182.196 241.096 182.479 240.751 182.843 240.508C183.207 240.265 183.635 240.135 184.072 240.135C184.659 240.135 185.222 240.368 185.637 240.783C186.052 241.198 186.285 241.76 186.285 242.347Z" fill="#E0E0E0"/>
<path d="M184.072 247.2C183.812 245.593 183.812 243.955 184.072 242.348C184.332 243.955 184.332 245.593 184.072 247.2Z" fill="#E0E0E0"/>
<path d="M132.652 244.777C132.652 245.213 132.523 245.639 132.282 246.002C132.04 246.365 131.697 246.649 131.295 246.818C130.893 246.986 130.45 247.032 130.022 246.95C129.594 246.867 129.2 246.66 128.889 246.355C128.578 246.049 128.364 245.658 128.275 245.231C128.185 244.805 128.224 244.361 128.385 243.956C128.547 243.551 128.825 243.203 129.184 242.956C129.542 242.708 129.966 242.572 130.402 242.565C130.696 242.56 130.988 242.613 131.261 242.722C131.533 242.831 131.782 242.993 131.991 243.199C132.201 243.405 132.367 243.651 132.48 243.922C132.594 244.193 132.652 244.484 132.652 244.777Z" fill="#E0E0E0"/>
<path d="M130.44 249.63C130.18 248.023 130.18 246.384 130.44 244.777C130.7 246.384 130.7 248.023 130.44 249.63Z" fill="#E0E0E0"/>
<path d="M234.817 224.753C234.817 225.19 234.688 225.618 234.445 225.982C234.201 226.346 233.856 226.629 233.452 226.797C233.047 226.964 232.603 227.008 232.173 226.923C231.744 226.837 231.35 226.626 231.04 226.317C230.731 226.008 230.52 225.613 230.435 225.184C230.35 224.755 230.393 224.31 230.561 223.906C230.728 223.502 231.012 223.156 231.376 222.913C231.74 222.67 232.167 222.54 232.605 222.54C233.192 222.54 233.755 222.773 234.169 223.188C234.584 223.603 234.817 224.166 234.817 224.753Z" fill="#E0E0E0"/>
<path d="M232.605 229.605C232.345 227.998 232.345 226.359 232.605 224.752C232.865 226.359 232.865 227.998 232.605 229.605Z" fill="#E0E0E0"/>
<path d="M228.885 191.655C228.885 192.092 228.755 192.52 228.512 192.884C228.269 193.248 227.923 193.532 227.519 193.699C227.115 193.866 226.67 193.91 226.241 193.825C225.812 193.74 225.417 193.529 225.108 193.219C224.799 192.91 224.588 192.516 224.502 192.087C224.417 191.657 224.461 191.212 224.628 190.808C224.796 190.404 225.079 190.058 225.443 189.815C225.807 189.572 226.235 189.442 226.672 189.442C227.259 189.442 227.822 189.675 228.237 190.09C228.652 190.505 228.885 191.068 228.885 191.655Z" fill="#E0E0E0"/>
<path d="M226.672 196.5C226.413 194.893 226.413 193.255 226.672 191.647C226.932 193.255 226.932 194.893 226.672 196.5Z" fill="#E0E0E0"/>
<path d="M181.875 164.617C183.097 164.617 184.087 163.627 184.087 162.405C184.087 161.183 183.097 160.192 181.875 160.192C180.653 160.192 179.662 161.183 179.662 162.405C179.662 163.627 180.653 164.617 181.875 164.617Z" fill="#E0E0E0"/>
<path d="M181.875 167.25C181.605 165.644 181.605 164.004 181.875 162.397C182.135 164.005 182.135 165.643 181.875 167.25Z" fill="#E0E0E0"/>
<path d="M141.787 204.143C141.787 204.578 141.658 205.005 141.417 205.368C141.176 205.731 140.832 206.014 140.43 206.183C140.028 206.351 139.585 206.397 139.157 206.315C138.729 206.232 138.335 206.025 138.024 205.72C137.713 205.414 137.499 205.023 137.41 204.597C137.32 204.17 137.359 203.726 137.52 203.321C137.682 202.917 137.96 202.569 138.319 202.321C138.677 202.073 139.102 201.937 139.537 201.93C139.831 201.925 140.123 201.979 140.396 202.088C140.668 202.197 140.917 202.359 141.126 202.565C141.336 202.771 141.502 203.016 141.615 203.287C141.729 203.558 141.787 203.849 141.787 204.143Z" fill="#E0E0E0"/>
<path d="M139.575 208.995C139.315 207.388 139.315 205.75 139.575 204.143C139.845 205.749 139.845 207.389 139.575 208.995Z" fill="#E0E0E0"/>
<path d="M167.782 146.618C167.782 147.063 167.651 147.498 167.403 147.868C167.156 148.238 166.805 148.526 166.394 148.696C165.982 148.867 165.53 148.911 165.094 148.824C164.657 148.737 164.256 148.523 163.941 148.208C163.627 147.894 163.413 147.493 163.326 147.056C163.239 146.62 163.283 146.168 163.454 145.756C163.624 145.345 163.912 144.994 164.282 144.747C164.652 144.499 165.087 144.368 165.532 144.368C165.829 144.362 166.124 144.417 166.399 144.528C166.675 144.64 166.925 144.805 167.135 145.015C167.345 145.225 167.51 145.475 167.622 145.75C167.733 146.026 167.788 146.321 167.782 146.618Z" fill="#E0E0E0"/>
<path d="M165.57 151.5C165.31 149.893 165.31 148.255 165.57 146.647C165.83 148.255 165.83 149.893 165.57 151.5Z" fill="#E0E0E0"/>
<path d="M212.895 141.75C212.888 142.186 212.751 142.61 212.504 142.969C212.256 143.328 211.908 143.605 211.503 143.767C211.099 143.929 210.655 143.967 210.228 143.878C209.802 143.788 209.411 143.575 209.105 143.264C208.799 142.953 208.592 142.559 208.51 142.131C208.428 141.702 208.474 141.259 208.642 140.857C208.811 140.455 209.094 140.112 209.457 139.87C209.82 139.629 210.246 139.5 210.682 139.5C210.976 139.5 211.267 139.558 211.538 139.672C211.809 139.785 212.054 139.952 212.26 140.161C212.466 140.371 212.628 140.619 212.737 140.892C212.846 141.165 212.9 141.456 212.895 141.75Z" fill="#E0E0E0"/>
<path d="M210.683 146.618C210.423 145.011 210.423 143.372 210.683 141.765C210.942 143.372 210.942 145.011 210.683 146.618Z" fill="#E0E0E0"/>
<path d="M225.367 139.725C225.367 140.172 225.234 140.608 224.985 140.979C224.737 141.35 224.383 141.638 223.97 141.807C223.556 141.976 223.102 142.018 222.665 141.929C222.227 141.839 221.826 141.621 221.513 141.302C221.2 140.984 220.989 140.579 220.906 140.14C220.824 139.702 220.874 139.248 221.05 138.838C221.226 138.427 221.52 138.078 221.895 137.836C222.27 137.593 222.708 137.467 223.155 137.475C223.449 137.475 223.739 137.533 224.01 137.647C224.281 137.76 224.527 137.927 224.733 138.136C224.939 138.346 225.101 138.594 225.21 138.867C225.319 139.139 225.372 139.431 225.367 139.725Z" fill="#E0E0E0"/>
<path d="M223.155 144.578C222.895 142.971 222.895 141.332 223.155 139.725C223.415 141.332 223.415 142.971 223.155 144.578Z" fill="#E0E0E0"/>
<path d="M220.358 123.405C220.358 123.842 220.228 124.27 219.985 124.634C219.742 124.998 219.396 125.282 218.992 125.449C218.587 125.616 218.143 125.66 217.713 125.575C217.284 125.49 216.89 125.279 216.581 124.969C216.271 124.66 216.06 124.266 215.975 123.837C215.89 123.407 215.933 122.962 216.101 122.558C216.268 122.154 216.552 121.808 216.916 121.565C217.28 121.322 217.707 121.192 218.145 121.192C218.729 121.202 219.286 121.438 219.699 121.851C220.112 122.264 220.348 122.821 220.358 123.405Z" fill="#E0E0E0"/>
<path d="M218.145 128.25C217.885 126.643 217.885 125.005 218.145 123.397C218.405 125.005 218.405 126.643 218.145 128.25Z" fill="#E0E0E0"/>
<path d="M150.885 161.002C150.885 161.438 150.756 161.865 150.515 162.228C150.273 162.591 149.93 162.874 149.528 163.043C149.125 163.211 148.683 163.257 148.254 163.175C147.826 163.092 147.432 162.885 147.121 162.58C146.81 162.274 146.597 161.883 146.507 161.457C146.418 161.03 146.456 160.586 146.618 160.181C146.78 159.776 147.057 159.428 147.416 159.181C147.775 158.933 148.199 158.797 148.635 158.79C148.929 158.785 149.22 158.838 149.493 158.947C149.766 159.056 150.014 159.219 150.224 159.424C150.433 159.63 150.6 159.876 150.713 160.147C150.827 160.418 150.885 160.709 150.885 161.002Z" fill="#E0E0E0"/>
<path d="M148.672 165.855C148.413 164.248 148.413 162.609 148.672 161.002C148.932 162.609 148.932 164.248 148.672 165.855Z" fill="#E0E0E0"/>
<path d="M202.305 140.07C202.312 140.518 202.186 140.958 201.941 141.334C201.697 141.709 201.346 142.004 200.933 142.178C200.521 142.353 200.065 142.401 199.625 142.315C199.186 142.23 198.781 142.015 198.464 141.698C198.147 141.381 197.932 140.977 197.847 140.537C197.761 140.097 197.809 139.641 197.984 139.229C198.159 138.816 198.453 138.465 198.829 138.221C199.204 137.976 199.644 137.85 200.092 137.857C200.679 137.857 201.242 138.09 201.657 138.505C202.072 138.92 202.305 139.483 202.305 140.07Z" fill="#E0E0E0"/>
<path d="M200.092 144.922C199.832 143.315 199.832 141.677 200.092 140.07C200.352 141.677 200.352 143.315 200.092 144.922Z" fill="#E0E0E0"/>
<path d="M140.182 90.2401C140.19 90.6883 140.063 91.1284 139.819 91.5041C139.575 91.8798 139.224 92.174 138.811 92.3489C138.398 92.5238 137.943 92.5715 137.503 92.4859C137.063 92.4003 136.659 92.1852 136.342 91.8683C136.025 91.5514 135.81 91.1471 135.724 90.7072C135.639 90.2672 135.686 89.8118 135.861 89.3992C136.036 88.9865 136.33 88.6355 136.706 88.3912C137.082 88.1468 137.522 88.0202 137.97 88.0277C138.557 88.0277 139.119 88.2607 139.534 88.6757C139.949 89.0906 140.182 89.6534 140.182 90.2401Z" fill="#E0E0E0"/>
<path d="M138 95.0847C137.808 94.2925 137.742 93.475 137.805 92.6622C137.742 91.8495 137.808 91.032 138 90.2397C138.196 91.0313 138.262 91.8495 138.195 92.6622C138.262 93.475 138.196 94.2932 138 95.0847Z" fill="#E0E0E0"/>
<path d="M165.57 102.353C165.57 102.79 165.44 103.218 165.197 103.582C164.954 103.946 164.608 104.229 164.204 104.397C163.8 104.564 163.355 104.608 162.926 104.523C162.497 104.437 162.102 104.227 161.793 103.917C161.483 103.608 161.273 103.213 161.187 102.784C161.102 102.355 161.146 101.91 161.313 101.506C161.481 101.102 161.764 100.756 162.128 100.513C162.492 100.27 162.92 100.14 163.357 100.14C163.944 100.14 164.507 100.373 164.922 100.788C165.337 101.203 165.57 101.766 165.57 102.353Z" fill="#E0E0E0"/>
<path d="M163.357 107.205C163.166 106.413 163.101 105.595 163.162 104.783C163.1 103.967 163.166 103.147 163.357 102.353C163.549 103.147 163.615 103.967 163.552 104.783C163.614 105.595 163.548 106.413 163.357 107.205Z" fill="#E0E0E0"/>
<path d="M125.25 140.618C125.25 141.063 125.118 141.498 124.871 141.868C124.624 142.238 124.272 142.526 123.861 142.696C123.45 142.867 122.998 142.911 122.561 142.824C122.125 142.737 121.724 142.523 121.409 142.208C121.094 141.894 120.88 141.493 120.793 141.056C120.706 140.62 120.751 140.168 120.921 139.756C121.092 139.345 121.38 138.994 121.75 138.747C122.12 138.499 122.555 138.368 123 138.368C123.297 138.362 123.592 138.417 123.867 138.528C124.142 138.64 124.392 138.805 124.602 139.015C124.812 139.225 124.978 139.475 125.089 139.75C125.2 140.026 125.255 140.321 125.25 140.618Z" fill="#E0E0E0"/>
<path d="M123 145.5C122.74 143.893 122.74 142.255 123 140.647C123.26 142.255 123.26 143.893 123 145.5Z" fill="#E0E0E0"/>
<path d="M127.432 104.565C127.44 105.013 127.313 105.453 127.069 105.829C126.825 106.205 126.474 106.499 126.061 106.674C125.648 106.849 125.193 106.896 124.753 106.811C124.313 106.725 123.909 106.51 123.592 106.193C123.275 105.876 123.06 105.472 122.974 105.032C122.889 104.592 122.936 104.136 123.111 103.724C123.286 103.311 123.58 102.96 123.956 102.716C124.332 102.472 124.772 102.345 125.22 102.352C125.807 102.352 126.369 102.585 126.784 103C127.199 103.415 127.432 103.978 127.432 104.565Z" fill="#E0E0E0"/>
<path d="M125.25 109.417C125.054 108.626 124.989 107.808 125.055 106.995C124.988 106.18 125.054 105.359 125.25 104.565C125.441 105.36 125.507 106.18 125.445 106.995C125.507 107.808 125.441 108.625 125.25 109.417Z" fill="#E0E0E0"/>
<path d="M222.645 207.728L240.885 198.06L240.81 215.498L222.645 207.728Z" fill="#EBEBEB"/>
<path d="M146.887 269.558L106.927 290.183V251.7L111.352 249.728L146.887 269.558Z" fill="#EBEBEB"/>
<path d="M206.572 290.182C206.572 290.687 206.423 291.18 206.143 291.599C205.862 292.018 205.464 292.345 204.998 292.538C204.532 292.731 204.02 292.782 203.525 292.683C203.03 292.585 202.576 292.342 202.219 291.985C201.863 291.629 201.62 291.174 201.521 290.68C201.423 290.185 201.474 289.672 201.667 289.206C201.86 288.741 202.186 288.342 202.606 288.062C203.025 287.782 203.518 287.632 204.022 287.632C204.699 287.632 205.347 287.901 205.826 288.379C206.304 288.857 206.572 289.506 206.572 290.182Z" fill="#FFC100"/>
<path d="M229.905 108.165L242.633 112.035V132.09L229.905 108.165Z" fill="#EBEBEB"/>
<path d="M242.76 81.3751L242.685 59.4901C242.172 55.7198 240.315 52.2615 237.456 49.751C234.597 47.2404 230.927 45.8463 227.122 45.8251L207.045 45.7501C206.39 45.7618 205.744 45.9024 205.143 46.164C204.542 46.4255 203.999 46.8028 203.544 47.2743C203.09 47.7458 202.732 48.3023 202.492 48.912C202.253 49.5217 202.136 50.1726 202.147 50.8276V54.4651C202.168 55.7853 201.663 57.0597 200.745 58.0087C199.827 58.9577 198.57 59.5039 197.25 59.5276L158.107 59.3476C156.785 59.3103 155.532 58.75 154.622 57.7897C153.712 56.8294 153.221 55.5474 153.255 54.2251V50.5876C153.273 49.9325 153.162 49.2804 152.927 48.6684C152.693 48.0564 152.341 47.4965 151.89 47.0208C151.44 46.5451 150.9 46.1629 150.301 45.8959C149.703 45.629 149.058 45.4826 148.402 45.4651H141.337L123.75 45.3526C119.793 45.3434 115.977 46.8241 113.062 49.5001C111.3 52.8976 109.372 57.7501 110.257 61.4176L242.662 104.52L242.76 81.3751Z" fill="#FFC100"/>
<path opacity="0.7" d="M242.76 81.3751L242.685 59.4901C242.172 55.7198 240.315 52.2615 237.456 49.751C234.597 47.2404 230.927 45.8463 227.122 45.8251L207.045 45.7501C206.39 45.7618 205.744 45.9024 205.143 46.164C204.542 46.4255 203.999 46.8028 203.544 47.2743C203.09 47.7458 202.732 48.3023 202.492 48.912C202.253 49.5217 202.136 50.1726 202.147 50.8276V54.4651C202.168 55.7853 201.663 57.0597 200.745 58.0087C199.827 58.9577 198.57 59.5039 197.25 59.5276L158.107 59.3476C156.785 59.3103 155.532 58.75 154.622 57.7897C153.712 56.8294 153.221 55.5474 153.255 54.2251V50.5876C153.273 49.9325 153.162 49.2804 152.927 48.6684C152.693 48.0564 152.341 47.4965 151.89 47.0208C151.44 46.5451 150.9 46.1629 150.301 45.8959C149.703 45.629 149.058 45.4826 148.402 45.4651H141.337L123.75 45.3526C119.793 45.3434 115.977 46.8241 113.062 49.5001C111.3 52.8976 109.372 57.7501 110.257 61.4176L242.662 104.52L242.76 81.3751Z" fill="white"/>
<path d="M227.123 45.8252H227.663C228.197 45.835 228.731 45.8801 229.26 45.9602C231.358 46.2199 233.375 46.9257 235.178 48.0302C236.52 48.8309 237.731 49.8325 238.77 51.0002C240.043 52.3872 241.059 53.9897 241.77 55.7327C242.58 57.7714 242.973 59.952 242.925 62.1452C242.925 64.4752 242.925 66.9577 242.925 69.5927C242.85 90.6452 242.745 121.103 242.61 158.738C242.475 196.373 242.288 241.185 242.093 290.948C242.093 297.163 242.068 303.458 242.018 309.833C242.018 311.423 242.018 313.02 242.018 314.625C242.04 316.25 241.828 317.869 241.388 319.433C240.945 321.009 240.259 322.507 239.355 323.873C238.438 325.237 237.326 326.46 236.055 327.503C233.456 329.595 230.266 330.82 226.935 331.005C226.103 331.058 225.278 331.043 224.453 331.043H221.978H217.005L196.883 330.953L155.535 330.75L134.415 330.653L123.75 330.57C120.107 330.757 116.504 329.745 113.49 327.69C110.485 325.596 108.284 322.541 107.25 319.028C106.758 317.292 106.543 315.49 106.613 313.688V308.363C106.643 301.278 106.673 294.235 106.703 287.235C106.763 273.235 106.82 259.468 106.875 245.933C106.995 218.85 107.108 192.728 107.22 167.843C107.333 142.958 107.438 119.318 107.535 97.1852C107.585 86.1202 107.635 75.4477 107.685 65.1677C107.685 63.8777 107.685 62.6027 107.685 61.3352C107.685 60.6977 107.745 60.0527 107.783 59.4152C107.82 58.7777 107.948 58.1552 108.113 57.5402C108.69 55.0844 109.836 52.7982 111.458 50.8652C113.035 49.0045 115.016 47.5284 117.25 46.5497C119.485 45.571 121.913 45.1154 124.35 45.2177L138.12 45.2852H144.743H147.99C149.091 45.2307 150.179 45.5389 151.088 46.1627C152.005 46.7934 152.699 47.6996 153.068 48.7502C153.359 49.7629 153.463 50.8202 153.375 51.8702C153.375 52.3802 153.375 52.8977 153.375 53.3702C153.341 53.8696 153.341 54.3708 153.375 54.8702C153.497 55.8521 153.906 56.7759 154.553 57.5252C155.18 58.267 156.025 58.7919 156.968 59.0252C157.434 59.1392 157.913 59.1896 158.393 59.1752H159.848H165.555L186.383 59.2877L195.57 59.3402C196.32 59.3402 197.033 59.3402 197.723 59.3402C198.412 59.2638 199.076 59.0331 199.665 58.6652C200.233 58.3119 200.725 57.8486 201.111 57.3025C201.498 56.7564 201.771 56.1385 201.915 55.4852C202.025 54.8515 202.068 54.2079 202.043 53.5652C202.043 52.9277 202.043 52.2977 202.043 51.6752C202.016 51.0612 202.046 50.4461 202.133 49.8377C202.232 49.2445 202.435 48.6733 202.733 48.1502C203.284 47.1262 204.179 46.3295 205.26 45.9002C206.273 45.5842 207.339 45.4745 208.395 45.5777L218.64 45.6452L224.94 45.6902H227.093C227.093 45.6902 226.343 45.6902 224.94 45.6902H218.64H208.395C207.354 45.5844 206.302 45.6941 205.305 46.0127C204.259 46.4255 203.39 47.1891 202.845 48.1727C202.561 48.6862 202.366 49.2441 202.268 49.8227C202.187 50.4241 202.159 51.0315 202.185 51.6377C202.185 52.2602 202.185 52.8902 202.185 53.5277C202.214 54.1807 202.169 54.835 202.05 55.4777C201.907 56.1511 201.63 56.7889 201.236 57.3532C200.842 57.9175 200.338 58.3968 199.755 58.7627C199.149 59.1449 198.464 59.3859 197.753 59.4677C197.003 59.5277 196.313 59.4677 195.578 59.4677H186.39L165.563 59.3852H159.855H158.4C157.896 59.4032 157.391 59.3527 156.9 59.2352C155.937 59.0025 155.067 58.485 154.403 57.7502C153.727 56.9644 153.299 55.9963 153.173 54.9677C153.124 54.4567 153.109 53.9431 153.128 53.4302V51.9302C153.215 50.9207 153.116 49.9038 152.835 48.9302C152.49 47.9549 151.851 47.111 151.005 46.5152C150.138 45.9213 149.099 45.6312 148.05 45.6902H144.803H138.18L124.403 45.6377C122.021 45.5239 119.645 45.9521 117.454 46.8901C115.262 47.8281 113.312 49.2514 111.75 51.0527C110.162 52.953 109.04 55.1975 108.473 57.6077C108.315 58.2077 108.263 58.8377 108.15 59.4527C108.038 60.0677 108.068 60.6977 108.06 61.3352C108.06 62.6027 108.06 63.8852 108.06 65.1677C108.015 75.4327 107.973 86.1052 107.933 97.1852C107.85 119.318 107.753 142.935 107.655 167.843C107.558 192.75 107.445 218.843 107.333 245.933C107.278 259.478 107.21 273.25 107.13 287.25C107.13 294.25 107.103 301.293 107.048 308.378V313.71C106.977 315.482 107.187 317.254 107.67 318.96C108.676 322.38 110.813 325.357 113.73 327.405C116.678 329.399 120.197 330.373 123.75 330.18L134.415 330.225L155.543 330.323L196.83 330.518L216.953 330.615H221.925H224.4C225.225 330.615 226.05 330.615 226.86 330.578C230.115 330.397 233.231 329.201 235.77 327.158C237.012 326.139 238.098 324.943 238.995 323.61C239.876 322.279 240.547 320.819 240.983 319.283C241.413 317.751 241.617 316.164 241.59 314.573C241.59 312.968 241.59 311.37 241.59 309.78C241.62 303.405 241.648 297.108 241.673 290.888C241.905 241.133 242.108 196.32 242.273 158.685C242.438 121.05 242.61 90.5927 242.715 69.5402C242.715 66.9102 242.728 64.4277 242.753 62.0927C242.81 59.9161 242.428 57.7503 241.628 55.7252C240.934 53.9903 239.933 52.3947 238.673 51.0152C237.642 49.8644 236.443 48.8758 235.118 48.0827C233.327 46.9766 231.323 46.261 229.238 45.9827C228.709 45.8958 228.175 45.8457 227.64 45.8327C227.303 45.8477 227.123 45.8252 227.123 45.8252Z" fill="#263238"/>
<path d="M274.027 194.843C285.135 195.12 296.362 195.413 307.102 198.263C317.842 201.113 328.215 206.783 334.582 215.888C341.602 225.908 342.997 238.718 343.695 250.928C344.959 271.192 344.643 291.523 342.75 311.738C341.745 321.968 338.115 331.478 328.597 335.37C317.152 340.058 301.77 335.37 301.77 335.37" fill="#263238"/>
<path d="M303.818 332.933C303.818 332.933 303.96 332.933 304.238 332.933H305.475L310.223 332.895C312.729 332.94 315.235 332.81 317.723 332.505C318.473 332.385 319.223 332.303 319.973 332.108L321.128 331.853C321.518 331.748 321.878 331.62 322.305 331.508C323.108 331.298 323.888 330.96 324.705 330.66C325.527 330.312 326.329 329.916 327.105 329.475C328.793 328.543 330.314 327.337 331.605 325.905C332.983 324.354 333.987 322.506 334.537 320.505C335.587 316.021 336.153 311.437 336.225 306.833C336.375 301.965 336.323 296.85 336.368 291.54C336.412 286.23 336.413 280.748 336.443 275.123C336.473 269.498 336.525 264 336.345 258.698C336.212 253.606 335.731 248.529 334.905 243.503C333.285 233.91 329.933 225.593 325.598 219.638C323.621 216.982 321.402 214.516 318.968 212.273C316.83 210.27 314.91 208.635 313.335 207.308L309.69 204.27L308.753 203.468C308.642 203.379 308.537 203.284 308.438 203.183C308.438 203.183 308.558 203.265 308.775 203.438L309.743 204.188L313.433 207.188C315.023 208.493 316.965 210.113 319.118 212.108C321.58 214.345 323.825 216.811 325.823 219.473C330.21 225.473 333.615 233.805 335.265 243.473C336.1 248.516 336.586 253.61 336.72 258.72C336.915 264.03 336.855 269.528 336.832 275.153C336.81 280.778 336.78 286.268 336.75 291.578C336.72 296.888 336.75 301.995 336.585 306.878C336.5 311.509 335.92 316.118 334.853 320.625C334.287 322.668 333.261 324.554 331.853 326.138C330.544 327.583 329.006 328.801 327.3 329.745C326.513 330.188 325.702 330.586 324.87 330.938C324.038 331.238 323.243 331.568 322.433 331.778L321.247 332.115L320.077 332.37C319.327 332.558 318.577 332.633 317.827 332.753C315.339 333.041 312.832 333.148 310.327 333.075H305.58H304.343L303.818 332.933Z" fill="#455A64"/>
<path d="M336.532 277.988C337.778 277.524 339.096 277.287 340.425 277.29C341.749 277.167 343.085 277.279 344.37 277.62C344.37 277.733 342.6 277.575 340.44 277.68C338.28 277.785 336.555 278.1 336.532 277.988Z" fill="#455A64"/>
<path d="M288.54 195.42H288.825H289.673C290.423 195.42 291.518 195.42 292.928 195.547C296.914 195.908 300.842 196.746 304.628 198.045L306.45 198.72L307.395 199.072L308.325 199.492L310.253 200.37C310.913 200.662 311.535 201.037 312.203 201.382C315.002 202.875 317.663 204.614 320.153 206.58C322.927 208.727 325.489 211.135 327.803 213.772C330.296 216.605 332.379 219.773 333.99 223.185C337.335 230.197 338.783 237.54 339.525 244.185C340.268 250.83 340.275 256.875 340.275 261.93C340.275 266.985 340.275 271.065 340.373 273.892C340.418 275.287 340.448 276.375 340.47 277.147C340.47 277.5 340.47 277.777 340.47 277.987C340.478 278.085 340.478 278.183 340.47 278.28C340.459 278.185 340.459 278.09 340.47 277.995C340.47 277.785 340.47 277.5 340.41 277.147C340.358 276.397 340.305 275.31 340.245 273.9C340.133 271.072 340.073 266.985 340.02 261.9C339.968 256.815 339.885 250.83 339.158 244.192C338.43 237.555 336.908 230.295 333.63 223.342C332.038 219.959 329.975 216.818 327.503 214.012C325.213 211.385 322.674 208.986 319.92 206.85C317.453 204.885 314.815 203.146 312.038 201.652C311.385 201.307 310.763 200.902 310.11 200.632L308.198 199.755L307.268 199.327L306.338 198.975L304.53 198.285C300.767 196.978 296.866 196.105 292.905 195.682C291.503 195.562 290.4 195.54 289.665 195.487L288.818 195.435C288.725 195.44 288.632 195.435 288.54 195.42Z" fill="#E0E0E0"/>
<path d="M281.595 195.398C281.595 195.398 284.317 188.205 294.015 189.57C294.015 189.57 298.335 189.33 299.122 191.73C299.122 191.73 290.085 189.48 286.237 195.735L281.595 195.398Z" fill="#263238"/>
<path d="M309.232 204.157H303.555C303.555 204.157 302.452 189.158 288.682 189.72C288.682 189.75 305.797 183.99 309.232 204.157Z" fill="#455A64"/>
<path d="M336.615 287.153L344.76 288.278L343.942 291.173L336.345 290.588L336.615 287.153Z" fill="#455A64"/>
<path d="M337.11 289.77C337.362 289.243 337.682 288.751 338.062 288.308L338.175 288.158L338.302 288.308L339.442 289.695L339.18 289.658L339.99 289.058L340.837 288.443L340.987 288.33L341.1 288.488L342.142 289.988L341.932 289.95C342.394 289.599 342.898 289.306 343.432 289.08C343.055 289.509 342.621 289.885 342.142 290.198L342 290.25L341.91 290.13L340.8 288.705L341.062 288.743L340.23 289.365L339.412 289.958L339.262 290.07L339.15 289.92L338.07 288.495H338.31C337.968 288.972 337.565 289.4 337.11 289.77Z" fill="#FFC100"/>
<path d="M218.25 340.755C218.25 340.755 216.675 335.625 216.99 333.45C217.305 331.275 220.223 329.31 220.223 329.31L217.058 247.072C217.058 247.072 216.653 211.072 235.688 199.92L247.05 197.055L275.077 195.397C275.985 195.697 308.925 208.087 313.455 212.925L299.25 285.45C299.25 285.45 300.975 306.877 302.693 322.275C303.045 325.425 305.408 340.98 305.408 340.98L218.25 340.755Z" fill="#FFC100"/>
<g opacity="0.3">
<path d="M302.167 317.438C301.897 319.433 301.14 321.87 299.22 322.493C297.256 323.005 295.197 323.033 293.22 322.575C286.2 321.323 279.72 318.023 273.382 314.768C261.525 308.67 249.555 302.513 239.31 293.963C237.87 292.763 236.31 290.895 237.217 289.238C238.215 287.363 241.027 287.993 242.955 288.885C263.07 298.155 282.045 308.16 302.16 317.438" fill="black"/>
</g>
<path d="M231.42 202.163C231.42 202.163 218.872 206.348 214.815 217.973C210.315 230.813 207.36 255.743 207.36 255.743L219.75 257.303L231.42 202.163Z" fill="#FFC100"/>
<path d="M313.44 212.925C313.44 212.925 320.19 221.775 323.445 232.53C326.7 243.285 328.59 274.447 328.59 274.447L294.84 273.982L293.047 246.555C293.047 246.555 289.642 200.797 313.44 212.925Z" fill="#FFC100"/>
<path d="M211.785 229.17C212.048 228.829 212.365 228.533 212.723 228.293C213.237 227.945 213.816 227.704 214.426 227.587C215.036 227.47 215.663 227.478 216.27 227.61C217.905 227.85 219.495 229.11 221.588 229.935C222.679 230.421 223.891 230.57 225.068 230.363C226.298 230.1 227.37 229.215 228.495 228.353C229.072 227.888 229.701 227.493 230.37 227.175C230.733 227.004 231.126 226.907 231.526 226.89C231.927 226.874 232.327 226.937 232.703 227.078C233.464 227.412 234.1 227.979 234.518 228.698C234.983 229.373 235.358 230.108 235.845 230.768C236.29 231.471 236.962 232 237.75 232.268C238.568 232.508 239.437 232.508 240.255 232.268C241.115 232.03 241.938 231.674 242.7 231.21C243.45 230.753 244.2 230.198 245.033 229.71C245.843 229.175 246.721 228.749 247.643 228.443C248.619 228.133 249.666 228.133 250.643 228.443C251.603 228.798 252.485 229.338 253.238 230.033C253.988 230.685 254.738 231.405 255.525 232.028C256.287 232.687 257.207 233.137 258.195 233.333C259.204 233.513 260.243 233.406 261.195 233.025C263.145 232.275 264.87 230.97 266.79 229.913C267.736 229.346 268.767 228.933 269.843 228.69C270.931 228.477 272.056 228.565 273.098 228.945C275.138 229.74 276.653 231.293 278.468 232.155C278.912 232.373 279.38 232.539 279.863 232.65C280.341 232.746 280.83 232.779 281.318 232.748C282.291 232.65 283.238 232.378 284.115 231.945C285.893 231.143 287.498 230.018 289.365 229.41C290.274 229.089 291.249 229.004 292.2 229.163C293.12 229.357 293.971 229.792 294.668 230.423C296.04 231.57 297.128 233.033 298.695 233.52C299.464 233.745 300.277 233.768 301.058 233.588C301.822 233.414 302.574 233.188 303.308 232.913C304.755 232.403 306.27 231.878 307.74 232.215C308.439 232.376 309.091 232.697 309.645 233.153C310.193 233.573 310.673 234.038 311.145 234.458C311.602 234.876 312.105 235.241 312.645 235.545C313.15 235.813 313.699 235.988 314.265 236.063C315.298 236.198 316.347 236.093 317.333 235.755C318.163 235.471 318.948 235.07 319.665 234.563C320.655 233.849 321.578 233.049 322.425 232.17L323.1 231.495C323.17 231.413 323.251 231.34 323.34 231.278C323.34 231.278 323.273 231.368 323.13 231.525L322.485 232.23C321.651 233.134 320.735 233.958 319.748 234.69C319.026 235.214 318.233 235.631 317.393 235.928C316.382 236.289 315.301 236.41 314.235 236.28C313.64 236.207 313.063 236.026 312.533 235.748C311.994 235.435 311.491 235.066 311.033 234.645C310.065 233.82 309.105 232.763 307.725 232.485C306.345 232.208 304.905 232.68 303.458 233.198C302.709 233.481 301.942 233.714 301.163 233.895C300.33 234.087 299.463 234.063 298.643 233.828C297.804 233.542 297.036 233.079 296.393 232.47C295.733 231.885 295.133 231.248 294.45 230.685C293.801 230.091 293.002 229.684 292.14 229.508C291.248 229.366 290.335 229.451 289.485 229.755C287.723 230.34 286.118 231.458 284.303 232.283C283.39 232.739 282.401 233.023 281.385 233.123C280.863 233.158 280.339 233.125 279.825 233.025C279.307 232.908 278.803 232.732 278.325 232.5C276.435 231.593 274.92 230.055 272.978 229.313C272.006 228.956 270.955 228.873 269.94 229.073C268.905 229.312 267.914 229.709 267 230.25C265.11 231.285 263.385 232.628 261.353 233.393C260.337 233.789 259.232 233.9 258.158 233.715C257.109 233.504 256.132 233.026 255.323 232.328C253.695 231.06 252.39 229.41 250.553 228.803C249.652 228.518 248.685 228.518 247.785 228.803C246.895 229.098 246.048 229.509 245.265 230.025C244.463 230.513 243.72 231.068 242.91 231.525C242.121 232 241.271 232.363 240.383 232.605C239.501 232.86 238.564 232.86 237.683 232.605C236.837 232.315 236.112 231.754 235.62 231.008C235.118 230.318 234.743 229.575 234.3 228.915C233.911 228.257 233.33 227.734 232.635 227.415C232.295 227.287 231.932 227.228 231.568 227.244C231.205 227.259 230.848 227.348 230.52 227.505C229.869 227.807 229.257 228.187 228.698 228.638C227.573 229.478 226.448 230.385 225.158 230.67C223.932 230.877 222.674 230.712 221.543 230.198C219.42 229.358 217.86 228.075 216.293 227.82C215.702 227.684 215.09 227.667 214.492 227.77C213.895 227.873 213.324 228.094 212.813 228.42C212.452 228.645 212.109 228.896 211.785 229.17Z" fill="#FAFAFA"/>
<path d="M207.81 249.45C207.92 249.44 208.03 249.44 208.14 249.45L209.115 249.547C210.337 249.789 211.597 249.756 212.805 249.45C213.6 249.277 214.492 249.12 215.467 248.947C216.442 248.775 217.485 248.542 218.64 248.407C219.895 248.226 221.174 248.319 222.39 248.677C223.665 249.052 224.902 249.705 226.267 250.177C227.691 250.661 229.228 250.706 230.677 250.305C232.177 249.937 233.677 249.24 235.335 248.677C236.99 247.97 238.823 247.789 240.585 248.16C242.4 248.67 243.862 250.012 245.677 250.455C246.129 250.566 246.595 250.599 247.057 250.552C247.531 250.494 247.996 250.383 248.445 250.222C249.36 249.907 250.245 249.472 251.212 249.105C252.201 248.695 253.304 248.658 254.317 249C255.271 249.452 256.155 250.038 256.942 250.74C257.344 251.054 257.782 251.319 258.247 251.527C258.721 251.728 259.233 251.823 259.747 251.805C260.797 251.709 261.816 251.405 262.747 250.912C263.726 250.408 264.751 249.998 265.807 249.69C266.364 249.552 266.94 249.512 267.51 249.57C268.083 249.647 268.637 249.827 269.145 250.102C270.096 250.676 271.012 251.305 271.89 251.985C272.324 252.289 272.792 252.541 273.285 252.735C273.527 252.832 273.778 252.902 274.035 252.945L274.417 253.012H274.807C275.858 252.99 276.895 252.774 277.867 252.375C278.857 252.015 279.832 251.587 280.867 251.287C281.88 250.926 282.971 250.846 284.025 251.055C285.041 251.339 285.961 251.894 286.687 252.66C287.369 253.372 288.101 254.033 288.877 254.64C289.645 255.186 290.577 255.45 291.517 255.39C292.441 255.295 293.337 255.023 294.157 254.587C294.99 254.182 295.777 253.71 296.58 253.267C298.155 252.39 299.887 251.587 301.68 251.767C303.336 252.072 304.885 252.798 306.18 253.875C307.354 254.825 308.608 255.671 309.93 256.402C311.162 256.999 312.495 257.36 313.86 257.467C315.082 257.535 316.307 257.442 317.505 257.19C319.426 256.745 321.221 255.871 322.755 254.632C323.71 253.835 324.535 252.894 325.2 251.842C325.41 251.475 325.552 251.175 325.657 250.987C325.706 250.887 325.761 250.789 325.822 250.695C325.789 250.801 325.747 250.904 325.695 251.002C325.597 251.197 325.47 251.505 325.267 251.88C324.627 252.963 323.811 253.931 322.852 254.745C321.316 256.022 319.507 256.93 317.565 257.4C316.35 257.673 315.104 257.779 313.86 257.715C312.46 257.618 311.091 257.257 309.825 256.65C308.479 255.925 307.201 255.079 306.007 254.122C304.751 253.085 303.252 252.386 301.65 252.09C299.97 251.902 298.312 252.667 296.745 253.545C295.957 253.987 295.162 254.467 294.307 254.88C293.448 255.339 292.509 255.626 291.54 255.727C290.521 255.79 289.51 255.505 288.675 254.917C287.875 254.306 287.123 253.634 286.425 252.907C285.744 252.19 284.881 251.672 283.927 251.407C282.937 251.216 281.913 251.296 280.965 251.64C279.975 251.932 279.007 252.39 278.002 252.72C276.989 253.14 275.905 253.367 274.807 253.387H274.38L273.967 253.312C273.686 253.269 273.412 253.191 273.15 253.08C272.62 252.873 272.116 252.604 271.65 252.277C270.782 251.608 269.878 250.987 268.942 250.417C268.477 250.164 267.968 249.998 267.442 249.93C266.918 249.879 266.388 249.914 265.875 250.035C264.841 250.343 263.837 250.745 262.875 251.235C261.901 251.746 260.836 252.062 259.74 252.165C259.18 252.173 258.624 252.069 258.105 251.857C257.613 251.634 257.15 251.352 256.725 251.017C255.961 250.344 255.111 249.774 254.197 249.322C253.263 249.012 252.249 249.049 251.34 249.427C250.41 249.75 249.517 250.215 248.572 250.537C248.088 250.711 247.584 250.827 247.072 250.882C246.57 250.93 246.063 250.895 245.572 250.777C243.63 250.282 242.182 248.94 240.465 248.46C238.76 248.095 236.984 248.265 235.38 248.947C233.843 249.566 232.276 250.107 230.685 250.567C229.181 250.973 227.589 250.916 226.117 250.402C224.722 249.93 223.5 249.27 222.255 248.902C221.087 248.551 219.857 248.454 218.647 248.617C217.507 248.737 216.45 248.962 215.475 249.127C214.5 249.292 213.607 249.427 212.812 249.592C212.415 249.667 212.062 249.757 211.672 249.81C211.334 249.851 210.991 249.851 210.652 249.81C210.03 249.742 209.505 249.667 209.077 249.607L208.117 249.472C208.014 249.474 207.912 249.467 207.81 249.45Z" fill="#FAFAFA"/>
<path d="M220.297 267.135H220.522L221.175 267.203C221.745 267.263 222.585 267.375 223.665 267.54C225.832 267.833 228.915 268.478 232.822 268.8C234.938 268.974 237.066 268.936 239.175 268.688C240.368 268.545 241.574 268.545 242.767 268.688C243.398 268.774 244.012 268.953 244.59 269.22C245.171 269.516 245.72 269.873 246.225 270.285C247.245 271.035 248.212 272.033 249.465 272.408C250.089 272.591 250.753 272.591 251.377 272.408C252.031 272.207 252.668 271.957 253.282 271.658C253.932 271.328 254.627 271.095 255.345 270.968C256.108 270.858 256.885 271.026 257.535 271.44C258.832 272.228 259.68 273.54 261 274.095C262.32 274.65 263.827 274.313 265.185 273.915C266.54 273.402 267.958 273.072 269.4 272.933C270.127 272.916 270.848 273.068 271.507 273.375C272.136 273.683 272.719 274.077 273.24 274.545C274.161 275.473 275.2 276.275 276.33 276.93C277.469 277.395 278.746 277.395 279.885 276.93C281.04 276.57 282.097 276.008 283.252 275.745C284.365 275.435 285.552 275.525 286.605 276C287.097 276.258 287.498 276.662 287.752 277.155C287.962 277.617 288.138 278.093 288.277 278.58C288.403 279.022 288.624 279.431 288.922 279.78C289.217 280.097 289.586 280.337 289.995 280.478C290.769 280.722 291.599 280.722 292.372 280.478C293.047 280.266 293.657 279.89 294.15 279.383C294.569 278.953 294.934 278.475 295.237 277.958C295.645 277.236 295.996 276.484 296.287 275.708C296.392 275.46 296.467 275.258 296.527 275.1C296.551 275.029 296.584 274.961 296.625 274.898C296.613 274.972 296.593 275.045 296.565 275.115L296.362 275.738C296.1 276.539 295.766 277.314 295.365 278.055C295.073 278.601 294.709 279.105 294.285 279.555C293.776 280.094 293.143 280.498 292.44 280.733C291.624 281.005 290.744 281.018 289.92 280.77C289.466 280.624 289.056 280.366 288.727 280.02C288.387 279.65 288.131 279.21 287.977 278.73C287.836 278.259 287.664 277.798 287.46 277.35C287.228 276.912 286.87 276.554 286.432 276.323C285.44 275.892 284.328 275.823 283.29 276.128C282.195 276.375 281.13 276.938 279.952 277.32C279.35 277.528 278.721 277.652 278.085 277.688C277.417 277.713 276.753 277.584 276.142 277.313C274.98 276.647 273.91 275.83 272.962 274.883C272.462 274.442 271.907 274.067 271.312 273.765C270.703 273.49 270.039 273.354 269.37 273.368C267.964 273.51 266.582 273.835 265.26 274.335C264.552 274.566 263.824 274.726 263.085 274.815C262.321 274.907 261.546 274.801 260.835 274.508C259.372 273.87 258.517 272.535 257.317 271.823C256.742 271.452 256.052 271.303 255.375 271.403C254.696 271.523 254.039 271.743 253.425 272.055C252.795 272.375 252.14 272.643 251.467 272.858C250.775 273.062 250.038 273.062 249.345 272.858C247.965 272.43 246.99 271.433 245.985 270.66C245.504 270.261 244.981 269.917 244.425 269.633C243.879 269.376 243.297 269.202 242.7 269.115C241.534 268.976 240.356 268.976 239.19 269.115C237.063 269.35 234.917 269.373 232.785 269.183C228.877 268.823 225.787 268.133 223.627 267.795L221.145 267.383L220.5 267.285L220.297 267.135Z" fill="#FAFAFA"/>
<path d="M219.247 317.153L219.472 317.063L220.125 316.838C220.702 316.635 221.557 316.328 222.66 315.968C224 315.495 225.389 315.17 226.8 315C227.701 314.949 228.603 315.098 229.44 315.435C230.341 315.816 231.286 316.085 232.252 316.238C233.32 316.282 234.381 316.044 235.327 315.548C236.382 314.994 237.49 314.549 238.635 314.22C239.91 313.989 241.221 314.066 242.46 314.445C243.727 314.783 244.98 315.285 246.285 315.668C247.593 316.119 248.992 316.238 250.357 316.013C251.757 315.602 253.12 315.072 254.43 314.43C255.144 314.126 255.905 313.946 256.68 313.898C257.488 313.868 258.287 314.08 258.975 314.505C260.347 315.315 261.33 316.65 262.77 317.183C263.485 317.422 264.256 317.441 264.982 317.235C265.719 317.024 266.437 316.75 267.127 316.418C267.825 316.08 268.547 315.794 269.287 315.563C270.045 315.317 270.859 315.298 271.627 315.51C272.359 315.766 273.014 316.202 273.532 316.778C274.057 317.31 274.522 317.865 275.032 318.315C275.554 318.749 276.174 319.049 276.838 319.188C277.502 319.328 278.19 319.304 278.842 319.118C280.17 318.855 281.422 318.368 282.69 318C283.323 317.821 283.975 317.723 284.632 317.708C285.285 317.688 285.931 317.846 286.5 318.165C287.051 318.465 287.517 318.898 287.857 319.425C288.202 319.92 288.472 320.438 288.75 320.925C289.173 321.902 289.954 322.68 290.932 323.1C291.859 323.372 292.855 323.27 293.707 322.815C294.487 322.438 295.184 321.907 295.755 321.255C296.606 320.138 297.333 318.931 297.922 317.655C298.323 316.852 298.795 316.087 299.332 315.368C299.524 315.121 299.737 314.893 299.97 314.685C299.97 314.685 299.76 314.925 299.4 315.435C298.89 316.164 298.441 316.934 298.057 317.738C297.485 319.039 296.768 320.272 295.92 321.413C295.337 322.099 294.62 322.658 293.812 323.055C292.895 323.556 291.816 323.672 290.812 323.378C289.767 322.939 288.926 322.122 288.457 321.09C287.895 320.123 287.37 318.998 286.312 318.458C285.255 317.918 283.972 318.023 282.75 318.345C281.527 318.668 280.26 319.2 278.887 319.478C278.187 319.642 277.461 319.667 276.75 319.553C276.383 319.49 276.025 319.381 275.685 319.23C275.351 319.062 275.038 318.853 274.755 318.608C274.192 318.128 273.72 317.565 273.21 317.055C272.736 316.52 272.131 316.117 271.455 315.885C270.757 315.698 270.02 315.716 269.332 315.938C268.611 316.168 267.907 316.448 267.225 316.778C266.515 317.127 265.775 317.408 265.012 317.618C264.212 317.841 263.363 317.821 262.575 317.558C260.985 316.95 260.01 315.593 258.72 314.843C258.095 314.457 257.369 314.266 256.635 314.295C255.901 314.339 255.181 314.509 254.505 314.798C253.176 315.446 251.793 315.978 250.372 316.388C248.949 316.62 247.49 316.494 246.127 316.02C244.792 315.623 243.555 315.12 242.31 314.783C241.123 314.415 239.867 314.332 238.642 314.543C237.517 314.864 236.427 315.296 235.387 315.833C234.391 316.34 233.279 316.577 232.162 316.523C231.177 316.361 230.214 316.079 229.297 315.683C228.494 315.345 227.626 315.188 226.755 315.225C225.357 315.378 223.98 315.677 222.645 316.118L220.095 316.92L219.42 317.108C219.364 317.13 219.307 317.145 219.247 317.153Z" fill="#FAFAFA"/>
<path d="M261.382 298.575C261.25 298.682 261.107 298.775 260.955 298.853C260.53 299.085 260.089 299.285 259.635 299.453C257.945 300.071 256.128 300.259 254.347 300C253.758 299.912 253.176 299.777 252.607 299.595C252.015 299.408 251.422 299.138 250.822 298.883C250.227 298.605 249.574 298.471 248.917 298.493C248.228 298.595 247.577 298.874 247.027 299.303C246.435 299.723 245.857 300.225 245.175 300.645C244.824 300.861 244.446 301.027 244.05 301.14C243.846 301.193 243.638 301.223 243.427 301.23C243.216 301.261 243.001 301.261 242.79 301.23C241.08 301.013 239.715 299.88 238.222 299.13C237.527 298.704 236.719 298.497 235.905 298.538L235.62 298.575C235.528 298.598 235.438 298.629 235.35 298.665C235.164 298.719 234.987 298.8 234.825 298.905C234.503 299.118 234.208 299.37 233.947 299.655C233.445 300.283 232.893 300.87 232.297 301.41C231.975 301.673 231.59 301.849 231.18 301.92C230.772 301.985 230.353 301.925 229.98 301.748C229.326 301.365 228.779 300.823 228.39 300.173C228.029 299.602 227.631 299.055 227.197 298.538C226.786 298.113 226.289 297.78 225.74 297.562C225.19 297.343 224.601 297.244 224.01 297.27C223.02 297.34 222.078 297.721 221.317 298.358C220.702 298.809 220.172 299.365 219.75 300C219.382 300.528 219.171 301.15 219.142 301.793C219.113 301.627 219.113 301.456 219.142 301.29C219.204 300.802 219.373 300.333 219.637 299.918C220.05 299.261 220.579 298.684 221.197 298.215C221.987 297.533 222.971 297.116 224.01 297.023C224.645 296.984 225.282 297.083 225.876 297.312C226.47 297.541 227.007 297.895 227.452 298.35C227.895 298.874 228.303 299.425 228.675 300C229.033 300.593 229.533 301.088 230.13 301.44C230.449 301.583 230.802 301.63 231.147 301.575C231.492 301.521 231.813 301.367 232.072 301.133C232.644 300.6 233.178 300.029 233.67 299.423C233.95 299.103 234.27 298.82 234.622 298.583C234.811 298.466 235.012 298.373 235.222 298.305L235.537 298.2L235.867 298.155C236.756 298.11 237.638 298.329 238.402 298.785C239.902 299.535 241.282 300.668 242.835 300.863C243.589 300.948 244.348 300.765 244.98 300.345C245.625 299.955 246.21 299.46 246.825 299.033C247.391 298.556 248.086 298.261 248.822 298.185C249.557 298.108 250.299 298.255 250.95 298.605C251.557 298.875 252.127 299.138 252.697 299.355C253.249 299.537 253.813 299.678 254.385 299.775C256.126 300.048 257.908 299.904 259.582 299.355C260.767 298.92 261.36 298.538 261.382 298.575Z" fill="#FAFAFA"/>
<path d="M219.982 337.192C220.06 337.203 220.135 337.223 220.207 337.252L220.485 337.342L220.875 337.402C221.753 337.437 222.624 337.224 223.387 336.787C224.608 336.083 225.904 335.517 227.25 335.1C227.677 335.013 228.114 334.99 228.547 335.032C229.006 335.104 229.449 335.251 229.86 335.467C230.706 335.971 231.514 336.538 232.275 337.162C233.078 337.843 234.103 338.205 235.155 338.182C236.285 337.977 237.372 337.584 238.372 337.02C238.941 336.75 239.54 336.551 240.157 336.427C240.805 336.322 241.466 336.338 242.107 336.472C243.412 336.712 244.635 337.267 245.925 337.62C247.245 337.985 248.637 338.006 249.967 337.68C251.367 337.331 252.738 336.877 254.07 336.322C255.469 335.729 256.935 335.306 258.435 335.062C260.017 334.86 261.625 335.12 263.062 335.812C264.517 336.442 265.845 337.252 267.247 337.815C268.588 338.431 270.099 338.571 271.53 338.212C274.327 337.41 276.375 335.145 279.03 334.267C280.33 333.818 281.743 333.818 283.042 334.267C284.233 334.691 285.361 335.274 286.395 336C287.407 336.667 288.36 337.342 289.327 337.89C290.246 338.429 291.239 338.828 292.275 339.075C294.074 339.447 295.937 339.368 297.697 338.842C299.028 338.447 300.274 337.809 301.372 336.96C302.303 336.222 303.112 335.344 303.772 334.357C303.742 334.431 303.704 334.501 303.66 334.567L303.292 335.152C302.771 335.874 302.156 336.522 301.462 337.08C300.354 337.943 299.095 338.594 297.75 339C296.338 339.471 294.842 339.635 293.362 339.48C291.882 339.325 290.453 338.854 289.17 338.1C288.18 337.552 287.227 336.877 286.215 336.225C285.201 335.518 284.096 334.953 282.93 334.545C281.704 334.117 280.369 334.117 279.142 334.545C277.859 335.047 276.644 335.709 275.527 336.517C274.333 337.384 273.013 338.062 271.612 338.527C270.109 338.898 268.525 338.755 267.112 338.122C265.672 337.537 264.345 336.727 262.92 336.105C261.543 335.45 260.006 335.208 258.495 335.407C257.026 335.643 255.591 336.053 254.22 336.63C252.87 337.194 251.478 337.653 250.057 338.002C248.668 338.332 247.218 338.304 245.842 337.92C244.515 337.552 243.307 336.997 242.092 336.765C241.491 336.632 240.87 336.614 240.262 336.712C239.671 336.825 239.097 337.011 238.552 337.267C237.516 337.841 236.39 338.237 235.222 338.437C234.1 338.462 233.008 338.072 232.155 337.342C231.41 336.721 230.62 336.154 229.792 335.647C229.408 335.44 228.993 335.296 228.562 335.22C228.155 335.171 227.743 335.186 227.34 335.265C226.011 335.668 224.729 336.211 223.515 336.885C222.726 337.313 221.83 337.503 220.935 337.432C220.777 337.432 220.65 337.387 220.537 337.357L220.267 337.245C220.17 337.241 220.075 337.223 219.982 337.192Z" fill="#FAFAFA"/>
<path d="M221.835 208.238C221.835 208.238 222.06 208.508 222.585 208.913C223.346 209.483 224.229 209.868 225.165 210.038C226.652 210.293 228.169 210.323 229.665 210.128C230.542 210.06 231.487 209.97 232.5 209.985C233.576 209.979 234.643 210.169 235.65 210.548C236.716 211.028 237.753 211.571 238.755 212.175C239.29 212.472 239.85 212.723 240.427 212.925C241.029 213.106 241.652 213.207 242.28 213.225C243.62 213.22 244.955 213.069 246.262 212.775C247.681 212.452 249.139 212.341 250.59 212.445C252.103 212.715 253.539 213.311 254.797 214.193C256.058 215.091 257.486 215.727 258.997 216.06C259.778 216.146 260.568 216.093 261.33 215.903C262.102 215.68 262.855 215.394 263.58 215.048C265.069 214.252 266.625 213.59 268.23 213.068C269.074 212.849 269.953 212.798 270.817 212.918C271.661 213.075 272.47 213.377 273.21 213.81C274.672 214.635 275.917 215.7 277.35 216.36C278.76 216.994 280.328 217.187 281.85 216.915C283.326 216.659 284.778 216.283 286.192 215.79C287.562 215.329 288.97 214.99 290.4 214.778C291.764 214.619 293.146 214.706 294.48 215.033C296.817 215.712 299.103 216.556 301.32 217.56C303.142 218.365 305.143 218.683 307.125 218.483C308.625 218.358 310.095 217.988 311.475 217.388C312.658 216.882 313.71 216.112 314.55 215.138C314.362 215.41 314.146 215.661 313.905 215.888C313.218 216.565 312.416 217.114 311.535 217.508C310.146 218.134 308.664 218.529 307.147 218.678C306.2 218.782 305.245 218.782 304.297 218.678C303.238 218.535 302.203 218.247 301.222 217.823C299.011 216.84 296.733 216.015 294.405 215.355C293.107 215.04 291.763 214.961 290.437 215.123C289.031 215.346 287.646 215.688 286.297 216.143C284.868 216.643 283.401 217.029 281.91 217.298C280.315 217.578 278.673 217.377 277.192 216.72C275.692 216.03 274.447 214.95 273.022 214.155C272.327 213.746 271.565 213.459 270.772 213.308C269.961 213.197 269.135 213.248 268.342 213.458C266.76 213.973 265.226 214.628 263.76 215.415C263.005 215.769 262.223 216.06 261.42 216.285C260.611 216.487 259.773 216.541 258.945 216.443C257.381 216.104 255.903 215.448 254.602 214.515C253.389 213.661 252.005 213.08 250.545 212.813C247.657 212.498 244.942 213.69 242.295 213.563C241.638 213.538 240.987 213.425 240.36 213.225C239.766 213.027 239.191 212.776 238.642 212.475C237.655 211.872 236.633 211.326 235.582 210.84C233.527 210.023 231.45 210.278 229.71 210.383C228.198 210.563 226.668 210.51 225.172 210.225C224.222 210.036 223.332 209.619 222.577 209.01C222.292 208.792 222.042 208.532 221.835 208.238Z" fill="#FAFAFA"/>
<g opacity="0.3">
<path d="M278.093 216.863L288.683 224.19C285.315 232.538 288.428 244.125 291.353 253.605C292.485 257.295 296.243 261.105 296.055 264.99C295.868 268.875 299.108 275.4 295.373 276.375C292.898 277.028 290.205 276.18 288.143 274.665C286.147 273.051 284.477 271.07 283.223 268.83C275.783 256.8 272.31 233.79 278.093 216.863Z" fill="black"/>
</g>
<path d="M222.345 330.81C222.481 330.805 222.618 330.82 222.75 330.855L223.89 331.065L228.075 331.86C231.607 332.528 236.505 333.36 241.935 334.11C247.365 334.86 252.307 335.385 255.885 335.715L260.13 336.09L261.285 336.203C261.42 336.206 261.554 336.229 261.682 336.27C261.548 336.286 261.412 336.286 261.277 336.27L260.122 336.233C259.11 336.188 257.662 336.105 255.862 335.978C252.277 335.715 247.32 335.228 241.882 334.478C236.445 333.728 231.547 332.82 228.022 332.085C226.26 331.725 224.835 331.403 223.86 331.17L222.735 330.885C222.603 330.875 222.472 330.85 222.345 330.81Z" fill="#263238"/>
<path d="M238.83 328.853C239.04 328.887 239.247 328.932 239.452 328.988C239.857 329.078 240.442 329.273 241.222 329.415C243.399 329.903 245.616 330.189 247.845 330.27C251.148 330.406 254.455 330.1 257.677 329.363C265.646 327.604 272.767 323.158 277.845 316.77C281.329 312.446 283.816 307.406 285.127 302.01C285.33 301.26 285.412 300.638 285.517 300.233C285.547 300.023 285.597 299.817 285.667 299.618C285.659 299.829 285.634 300.04 285.592 300.248C285.517 300.66 285.457 301.275 285.27 302.048C284.802 304.241 284.121 306.384 283.237 308.445C281.928 311.512 280.21 314.388 278.13 316.995C274.52 321.499 269.888 325.078 264.619 327.435C259.349 329.792 253.594 330.859 247.83 330.548C245.588 330.44 243.362 330.111 241.185 329.565C240.435 329.393 239.827 329.175 239.43 329.063C239.223 329.014 239.022 328.944 238.83 328.853Z" fill="#263238"/>
<path d="M245.475 197.017C245.496 197.199 245.496 197.383 245.475 197.565C245.475 197.955 245.475 198.465 245.475 199.11C245.427 200.999 245.618 202.887 246.045 204.727C246.358 205.985 246.908 207.171 247.665 208.222C248.558 209.406 249.703 210.377 251.017 211.065C252.473 211.842 254.035 212.4 255.652 212.722C257.375 213.106 259.138 213.277 260.902 213.232C264.339 213.196 267.704 212.246 270.652 210.48C273.035 209.005 274.97 206.907 276.247 204.412C277.102 202.727 277.597 200.884 277.702 198.997C277.755 197.662 277.612 196.927 277.665 196.92C277.71 197.095 277.742 197.273 277.762 197.452C277.832 197.967 277.865 198.486 277.86 199.005C277.811 200.925 277.345 202.811 276.495 204.532C275.225 207.101 273.267 209.266 270.84 210.787C267.847 212.606 264.42 213.586 260.917 213.622C259.118 213.667 257.319 213.49 255.562 213.097C253.911 212.761 252.319 212.182 250.837 211.38C249.478 210.653 248.301 209.627 247.395 208.38C246.625 207.291 246.072 206.063 245.767 204.765C245.361 202.899 245.207 200.987 245.31 199.08C245.31 198.405 245.37 197.88 245.4 197.527C245.407 197.355 245.432 197.184 245.475 197.017Z" fill="#263238"/>
<path d="M240.892 198.323C240.892 198.323 222.645 199.02 218.31 217.238C213.292 238.35 216.322 261.615 222.63 273.27L222.922 252.51C223.131 238.104 226.6 223.931 233.07 211.058L240.892 198.323Z" fill="#455A64"/>
<path d="M219.443 258.225C219.408 258.015 219.393 257.801 219.398 257.588C219.398 257.138 219.398 256.53 219.338 255.765C219.278 255 219.293 254.003 219.338 252.878C219.383 251.753 219.338 250.463 219.465 249.053C219.51 248.338 219.555 247.588 219.6 246.803C219.653 246.053 219.75 245.235 219.825 244.403C219.968 242.738 220.238 240.975 220.493 239.153C221.141 235.134 222.007 231.153 223.088 227.228C224.214 223.317 225.556 219.471 227.108 215.708C227.858 213.983 228.548 212.34 229.305 210.848C229.673 210.098 230.003 209.348 230.363 208.68C230.723 208.013 231.075 207.338 231.413 206.715C232.058 205.455 232.74 204.36 233.303 203.385C233.865 202.41 234.383 201.593 234.803 200.925L235.808 199.425C235.916 199.241 236.042 199.068 236.183 198.908C236.093 199.102 235.99 199.29 235.875 199.47L234.945 201C234.525 201.675 234.023 202.5 233.483 203.49C232.943 204.48 232.275 205.568 231.645 206.835L230.625 208.808C230.273 209.498 229.95 210.233 229.59 210.983C228.84 212.483 228.173 214.118 227.438 215.835C224.341 223.343 222.129 231.186 220.845 239.205C220.575 241.05 220.29 242.805 220.14 244.455C220.058 245.288 219.953 246.083 219.893 246.855C219.833 247.628 219.78 248.355 219.735 249.068C219.608 250.478 219.593 251.76 219.548 252.878C219.503 253.995 219.488 254.97 219.488 255.765C219.488 256.56 219.488 257.138 219.488 257.588C219.491 257.801 219.476 258.014 219.443 258.225Z" fill="#263238"/>
<path d="M227.79 202.943C227.737 203.113 227.664 203.277 227.573 203.43C227.393 203.775 227.168 204.233 226.875 204.795C226.253 205.965 225.413 207.698 224.43 209.858C223.958 210.953 223.41 212.108 222.93 213.435C222.683 214.088 222.398 214.755 222.18 215.453C221.963 216.15 221.685 216.878 221.43 217.62C220.353 220.847 219.472 224.135 218.79 227.468C217.624 233.545 217.059 239.722 217.103 245.91C217.103 248.288 217.163 250.208 217.23 251.535C217.23 252.173 217.275 252.683 217.283 253.073C217.305 253.25 217.305 253.429 217.283 253.605C217.246 253.43 217.223 253.252 217.215 253.073C217.215 252.69 217.14 252.18 217.088 251.573C216.975 250.245 216.885 248.318 216.833 245.94C216.709 239.727 217.239 233.518 218.415 227.415C219.082 224.058 219.961 220.746 221.048 217.5C221.31 216.75 221.565 216.038 221.798 215.333C222.03 214.628 222.345 213.968 222.6 213.315C223.103 212.01 223.673 210.833 224.16 209.745C225.173 207.593 226.058 205.875 226.725 204.72L227.475 203.393C227.565 203.233 227.671 203.082 227.79 202.943Z" fill="#263238"/>
<path d="M299.85 205.35C299.85 205.35 287.587 238.71 296.625 266.85L297.12 276.803C297.12 276.803 290.205 276.33 284.977 266.46C279.75 256.59 278.055 246.39 276.285 231.698C274.515 217.005 282.562 198.3 282.562 198.3C282.562 198.3 296.842 201.45 299.85 205.35Z" fill="#455A64"/>
<path d="M297.443 276C297.379 275.978 297.318 275.948 297.263 275.91L296.753 275.625C296.118 275.226 295.53 274.758 294.997 274.23C293.116 272.194 291.779 269.714 291.112 267.023C290.587 265.2 290.186 263.343 289.912 261.465C289.56 259.448 289.275 257.288 289.02 255C288.482 250.045 288.267 245.059 288.375 240.075C288.48 235.09 288.913 230.116 289.673 225.188C290.253 221.157 291.105 217.171 292.223 213.255C292.975 210.608 294.029 208.056 295.365 205.65C295.73 204.998 296.128 204.365 296.558 203.753L296.895 203.288L297.023 203.13C297.023 203.13 297.023 203.198 296.933 203.31L296.617 203.798C296.347 204.233 295.957 204.87 295.492 205.725C294.225 208.146 293.219 210.696 292.492 213.33C291.419 217.244 290.598 221.222 290.032 225.24C289.293 230.161 288.865 235.123 288.75 240.098C288.645 245.066 288.848 250.035 289.358 254.978C289.605 257.228 289.883 259.418 290.213 261.428C290.484 263.308 290.872 265.169 291.375 267C292.017 269.664 293.305 272.129 295.125 274.178C295.83 274.867 296.607 275.478 297.443 276Z" fill="#263238"/>
<path d="M297 275.67C296.929 275.659 296.861 275.636 296.797 275.602L296.212 275.362C295.491 275.008 294.803 274.589 294.157 274.11C291.853 272.232 289.953 269.908 288.57 267.277C286.421 263.449 284.626 259.432 283.207 255.277C281.471 250.199 280.281 244.949 279.66 239.617C279.04 234.284 278.975 228.9 279.465 223.552C279.872 219.188 280.666 214.869 281.835 210.645C282.367 208.852 282.817 207.217 283.335 205.837C283.852 204.457 284.257 203.235 284.707 202.29C285.157 201.345 285.457 200.617 285.682 200.092C285.795 199.86 285.877 199.672 285.945 199.522C285.974 199.457 286.009 199.394 286.05 199.335C286.038 199.406 286.015 199.474 285.982 199.537L285.757 200.122C285.54 200.655 285.232 201.397 284.85 202.372C284.467 203.347 284.032 204.547 283.537 205.942C283.042 207.337 282.585 208.942 282.075 210.75C280.954 214.964 280.201 219.268 279.825 223.612C279.353 228.936 279.429 234.294 280.05 239.602C280.657 244.903 281.814 250.126 283.5 255.187C284.899 259.318 286.655 263.318 288.75 267.142C290.101 269.756 291.948 272.082 294.187 273.99C294.819 274.478 295.488 274.915 296.19 275.295L296.752 275.565L297 275.67Z" fill="#263238"/>
<path d="M291.172 217.98L299.122 220.072L297.967 222.855L290.49 221.362L291.172 217.98Z" fill="#263238"/>
<path d="M291.353 220.643C291.663 220.149 292.039 219.7 292.47 219.308L292.605 219.165L292.71 219.33C293.018 219.81 293.34 220.313 293.67 220.83L293.415 220.763L294.3 220.26C294.608 220.088 294.908 219.915 295.208 219.758L295.373 219.66L295.463 219.825L296.325 221.408L296.123 221.355C296.611 221.059 297.135 220.827 297.683 220.665C297.254 221.044 296.778 221.364 296.265 221.618L296.138 221.693L296.063 221.558C295.763 221.07 295.455 220.553 295.133 220.013L295.395 220.088L294.488 220.598L293.603 221.093L293.438 221.183L293.348 221.025L292.448 219.48H292.688C292.291 219.92 291.843 220.311 291.353 220.643Z" fill="#FFC100"/>
<path d="M226.042 265.643L217.395 249.675H191.062L190.23 251.258L212.52 288.315L237.75 289.53L226.042 265.643Z" fill="#455A64"/>
<path d="M326.43 274.448V302.355C326.428 304.871 325.867 307.355 324.788 309.627C323.709 311.9 322.138 313.904 320.19 315.495C317.829 317.421 314.993 318.675 311.981 319.127C308.968 319.578 305.889 319.21 303.067 318.06L241.627 290.828L247.627 270.338L297.052 286.628L297 273.923L326.43 274.448Z" fill="#FFBE9D"/>
<path d="M225.21 267.225L216.555 251.258H190.23L211.68 289.898L236.91 291.113L225.21 267.225Z" fill="#263238"/>
<path d="M250.065 272.535L245.902 267.367C244.549 265.686 242.835 264.33 240.889 263.398C238.942 262.466 236.811 261.983 234.652 261.982H231L228.532 264.75C228.532 264.75 210.727 265.5 210.075 267.75V268.455V268.875L225.307 269.895C225.307 269.895 212.355 269.857 211.575 269.895C210.795 269.932 207.96 269.677 208.02 271.192C208.065 272.445 209.52 273.442 211.77 273.757C212.685 273.892 223.912 274.867 223.912 274.867L211.56 274.747C210.172 274.747 210.345 276.997 211.17 277.245C211.822 277.462 227.67 282.082 227.67 282.082C227.67 282.082 225.007 283.86 222.84 283.71C220.672 283.56 216.945 280.762 216.173 282.082C215.4 283.402 215.55 284.175 216.015 284.482C216.48 284.79 221.595 287.43 223.305 287.895C225.015 288.36 238.942 290.565 238.942 290.565L243.967 291.375L250.065 272.535Z" fill="#FFBE9D"/>
<path d="M193.912 257.49C193.912 257.49 191.16 258.45 192.555 261.99C193.89 265.242 195.78 268.237 198.142 270.84C198.019 271.418 198.057 272.019 198.251 272.577C198.446 273.135 198.789 273.629 199.245 274.005C199.245 274.005 197.295 274.493 198.495 277.755C198.311 278.226 198.225 278.73 198.244 279.235C198.262 279.741 198.383 280.237 198.6 280.694C198.817 281.15 199.125 281.558 199.506 281.891C199.886 282.224 200.331 282.475 200.812 282.63C200.812 282.63 199.837 285.435 203.37 286.77C206.902 288.105 210.315 285.795 210.315 285.795L193.912 257.49Z" fill="#FFBE9D"/>
<path d="M199.5 270.562C202.005 271.237 204.75 271.778 207.068 272.655C207.818 272.94 208.568 272.955 209.093 273.593C209.364 273.902 209.517 274.298 209.525 274.709C209.534 275.121 209.396 275.522 209.138 275.843C208.849 276.058 208.516 276.206 208.164 276.277C207.811 276.349 207.447 276.341 207.098 276.255C204.44 275.83 201.839 275.108 199.343 274.103" fill="#FFBE9D"/>
<path d="M200.498 274.74C202.995 275.415 205.748 275.948 208.058 276.833C208.808 277.118 209.558 277.133 210.083 277.77C210.354 278.08 210.507 278.475 210.515 278.887C210.524 279.299 210.386 279.7 210.128 280.02C209.838 280.233 209.506 280.381 209.153 280.452C208.801 280.523 208.437 280.517 208.088 280.433C205.43 279.994 202.829 279.262 200.333 278.25" fill="#FFBE9D"/>
<path d="M201.915 279.038C204.42 279.713 207.165 280.245 209.482 281.123C210.232 281.415 210.983 281.43 211.5 282.068C211.773 282.377 211.927 282.772 211.935 283.184C211.943 283.596 211.805 283.998 211.545 284.318C211.258 284.532 210.926 284.679 210.574 284.749C210.223 284.819 209.86 284.81 209.513 284.723C206.852 284.295 204.249 283.571 201.75 282.563" fill="#FFBE9D"/>
<path d="M199.5 274.178C199.5 274.073 201.307 274.688 203.527 275.303C205.747 275.918 207.57 276.315 207.555 276.42C206.149 276.368 204.757 276.115 203.423 275.67C202.053 275.354 200.733 274.851 199.5 274.178Z" fill="#EB996E"/>
<path d="M199.02 277.86C200.566 278.216 202.094 278.652 203.595 279.165C206.115 279.915 208.178 280.433 208.155 280.538C204.996 280.095 201.918 279.193 199.02 277.86Z" fill="#EB996E"/>
<path d="M200.662 282.6C202.118 282.762 203.556 283.054 204.96 283.47C206.396 283.766 207.803 284.185 209.167 284.723C207.712 284.561 206.274 284.27 204.87 283.853C203.432 283.563 202.024 283.144 200.662 282.6Z" fill="#EB996E"/>
<path d="M197.415 270.053C197.415 269.94 199.665 270.69 202.463 271.41C205.26 272.13 207.548 272.55 207.533 272.67C207.029 272.689 206.525 272.647 206.033 272.543C204.811 272.355 203.599 272.105 202.403 271.793C201.201 271.489 200.017 271.121 198.855 270.69C198.348 270.545 197.864 270.33 197.415 270.053Z" fill="#EB996E"/>
<path d="M222.473 264.99C224.558 264.78 226.655 264.7 228.75 264.75C230.834 264.673 232.92 264.726 234.998 264.908C232.922 265.116 230.835 265.194 228.75 265.14C226.656 265.223 224.56 265.173 222.473 264.99Z" fill="#EB996E"/>
<path d="M203.595 258C203.799 258.163 204.046 258.262 204.306 258.285C204.566 258.307 204.826 258.252 205.055 258.126C205.284 258.001 205.47 257.81 205.59 257.579C205.711 257.348 205.76 257.086 205.732 256.827C205.704 256.567 205.599 256.322 205.432 256.122C205.264 255.922 205.041 255.776 204.791 255.703C204.541 255.629 204.274 255.632 204.026 255.71C203.777 255.787 203.556 255.937 203.392 256.14C203.283 256.275 203.202 256.431 203.153 256.598C203.104 256.765 203.088 256.939 203.107 257.112C203.126 257.285 203.179 257.453 203.263 257.605C203.346 257.757 203.459 257.892 203.595 258Z" fill="#EBEBEB"/>
<path d="M293.85 285.908C294.055 285.89 294.261 285.913 294.457 285.975C295.004 286.072 295.543 286.208 296.07 286.38C299.588 287.505 302.688 289.658 304.972 292.56C305.317 292.994 305.633 293.45 305.917 293.925C306.12 294.263 306.217 294.45 306.195 294.465C306.172 294.48 305.662 293.783 304.755 292.733C302.398 289.986 299.377 287.89 295.98 286.643C294.675 286.163 293.835 285.968 293.85 285.908Z" fill="#EB996E"/>
<path d="M260.332 211.98C256.432 211.669 252.807 209.85 250.226 206.909C247.645 203.968 246.312 200.138 246.51 196.23C246.787 190.53 247.087 185.393 247.087 185.393C247.087 185.393 234.862 183.488 234.712 171.278C234.562 159.068 236.685 131.003 236.685 131.003C243.63 128.019 251.245 126.944 258.745 127.888C266.244 128.832 273.356 131.761 279.345 136.373L281.152 137.76L276.525 198.128C276.374 200.101 275.835 202.026 274.94 203.791C274.044 205.557 272.808 207.128 271.304 208.415C269.8 209.701 268.056 210.679 266.173 211.291C264.291 211.903 262.306 212.137 260.332 211.98Z" fill="#FFBE9D"/>
<path d="M247.065 185.25C252.702 185.364 258.244 183.797 262.988 180.75C262.988 180.75 259.238 189.54 247.035 188.438L247.065 185.25Z" fill="#EB996E"/>
<path d="M239.7 150.158C239.694 150.613 239.866 151.052 240.18 151.382C240.494 151.711 240.925 151.905 241.38 151.92C241.602 151.938 241.825 151.91 242.037 151.84C242.248 151.77 242.444 151.658 242.611 151.511C242.779 151.365 242.916 151.186 243.013 150.986C243.111 150.785 243.168 150.568 243.18 150.345C243.182 149.891 243.009 149.454 242.695 149.125C242.382 148.797 241.954 148.602 241.5 148.583C241.278 148.565 241.054 148.593 240.843 148.663C240.632 148.733 240.436 148.845 240.269 148.991C240.101 149.138 239.964 149.317 239.867 149.517C239.769 149.717 239.712 149.935 239.7 150.158Z" fill="#263238"/>
<path d="M238.995 148.2C239.212 148.425 240.495 147.45 242.407 147.45C244.32 147.45 245.662 148.395 245.865 148.2C245.962 148.095 245.745 147.683 245.115 147.248C244.302 146.686 243.336 146.388 242.347 146.393C241.373 146.391 240.422 146.698 239.632 147.27C239.085 147.683 238.89 148.095 238.995 148.2Z" fill="#263238"/>
<path d="M257.4 150.6C257.396 151.055 257.569 151.493 257.882 151.822C258.196 152.151 258.626 152.345 259.08 152.363C259.302 152.381 259.526 152.355 259.738 152.285C259.95 152.215 260.146 152.103 260.314 151.956C260.481 151.809 260.618 151.63 260.715 151.43C260.813 151.229 260.869 151.011 260.88 150.788C260.884 150.333 260.711 149.895 260.397 149.566C260.084 149.237 259.654 149.043 259.2 149.025C258.978 149.007 258.754 149.033 258.542 149.103C258.33 149.173 258.134 149.285 257.966 149.431C257.799 149.578 257.662 149.758 257.565 149.958C257.467 150.159 257.411 150.377 257.4 150.6Z" fill="#263238"/>
<path d="M257.445 148.553C257.663 148.778 258.99 147.803 260.865 147.803C262.74 147.803 264.113 148.748 264.323 148.553C264.42 148.455 264.203 148.043 263.573 147.608C262.761 147.043 261.794 146.744 260.805 146.753C259.827 146.749 258.874 147.057 258.082 147.63C257.535 148.035 257.34 148.448 257.445 148.553Z" fill="#263238"/>
<path d="M250.635 162.473C250.635 162.368 249.472 162.165 247.582 161.925C247.102 161.873 246.653 161.775 246.57 161.453C246.53 160.956 246.642 160.459 246.893 160.028L248.31 156.375C250.275 151.178 251.7 146.91 251.49 146.828C251.28 146.745 249.518 150.9 247.545 156.098C247.075 157.378 246.623 158.603 246.188 159.773C245.889 160.353 245.802 161.018 245.94 161.655C246.009 161.824 246.116 161.975 246.252 162.096C246.389 162.217 246.551 162.305 246.728 162.353C246.994 162.426 247.269 162.464 247.545 162.465C249.45 162.57 250.627 162.578 250.635 162.473Z" fill="#263238"/>
<path d="M256.162 163.77C255.855 163.77 255.847 165.788 254.107 167.235C252.367 168.683 250.192 168.458 250.177 168.735C250.177 168.863 250.657 169.133 251.58 169.155C252.773 169.173 253.933 168.77 254.857 168.015C255.747 167.29 256.318 166.246 256.447 165.105C256.5 164.25 256.297 163.755 256.162 163.77Z" fill="#263238"/>
<path d="M256.965 141.195C257.145 141.705 259.02 141.458 261.225 141.728C263.43 141.998 265.207 142.59 265.5 142.133C265.627 141.915 265.32 141.435 264.6 140.94C263.649 140.323 262.563 139.942 261.435 139.83C260.307 139.696 259.164 139.83 258.097 140.22C257.287 140.55 256.882 140.948 256.965 141.195Z" fill="#263238"/>
<path d="M239.685 142.762C240.015 143.19 241.305 142.762 242.865 142.762C244.425 142.762 245.738 143.055 246.038 142.605C246.173 142.387 245.963 141.96 245.385 141.562C244.614 141.075 243.715 140.83 242.803 140.858C241.892 140.886 241.009 141.186 240.27 141.72C239.723 142.117 239.535 142.56 239.685 142.762Z" fill="#263238"/>
<path d="M279.652 150.42C279.855 150.33 288.045 147.938 287.775 156.293C287.505 164.648 279.18 162.653 279.172 162.413C279.165 162.173 279.652 150.42 279.652 150.42Z" fill="#FFBE9D"/>
<path d="M281.827 159.33C281.865 159.33 281.97 159.435 282.21 159.555C282.55 159.718 282.941 159.739 283.298 159.615C284.19 159.323 284.978 157.943 285.068 156.443C285.113 155.726 284.995 155.008 284.723 154.343C284.653 154.079 284.521 153.836 284.337 153.634C284.152 153.433 283.922 153.28 283.665 153.188C283.499 153.141 283.322 153.152 283.163 153.22C283.005 153.289 282.875 153.41 282.795 153.563C282.675 153.795 282.72 153.96 282.675 153.975C282.63 153.99 282.502 153.825 282.577 153.488C282.636 153.282 282.76 153.1 282.93 152.97C283.166 152.806 283.456 152.739 283.74 152.783C284.084 152.861 284.403 153.026 284.666 153.263C284.928 153.499 285.126 153.798 285.24 154.133C285.571 154.866 285.718 155.669 285.668 156.473C285.563 158.153 284.648 159.705 283.418 160.013C283.191 160.07 282.954 160.077 282.724 160.031C282.494 159.986 282.278 159.89 282.09 159.75C281.835 159.533 281.797 159.345 281.827 159.33Z" fill="#EB996E"/>
<path d="M232.005 120.458C232.897 118.699 234.179 117.168 235.754 115.982C237.329 114.795 239.155 113.985 241.091 113.613C243.028 113.241 245.024 113.317 246.926 113.835C248.829 114.353 250.587 115.3 252.067 116.603C252.995 114.753 254.362 113.16 256.049 111.962C257.735 110.764 259.69 109.998 261.741 109.732C263.793 109.465 265.879 109.706 267.815 110.433C269.752 111.161 271.481 112.352 272.85 113.903C275.19 116.558 276.405 120.165 279.15 122.4C281.52 124.328 284.745 124.973 287.13 126.9C288.453 127.962 289.458 129.368 290.034 130.964C290.61 132.56 290.734 134.283 290.394 135.946C290.054 137.608 289.262 139.144 288.105 140.385C286.948 141.626 285.472 142.524 283.837 142.98C286.462 147.705 284.002 154.478 278.962 156.428L277.747 155.925C275.476 153.334 274.026 150.126 273.581 146.709C273.136 143.291 273.717 139.819 275.25 136.733C275.103 136.74 274.955 136.74 274.807 136.733C272.705 137.902 270.244 138.252 267.899 137.716C265.553 137.18 263.489 135.796 262.102 133.83C260.41 135.01 258.415 135.683 256.353 135.77C254.292 135.856 252.248 135.352 250.462 134.318C249.942 133.929 249.343 133.658 248.707 133.523C247.931 133.533 247.173 133.759 246.517 134.175C244.711 135.155 242.652 135.57 240.607 135.368C239.661 135.253 238.758 134.902 237.983 134.348C237.207 133.794 236.583 133.053 236.167 132.195C236.12 132.199 236.072 132.199 236.025 132.195C234.855 131.929 233.781 131.347 232.919 130.512C232.056 129.678 231.44 128.623 231.135 127.463C230.545 125.101 230.855 122.604 232.005 120.458Z" fill="#263238"/>
</svg>
