<svg width="40" height="41" viewBox="0 0 40 41" fill="none" xmlns="http://www.w3.org/2000/svg">
<rect y="0.294922" width="40" height="40" rx="20" fill="#F5F5F5"/>
<g clip-path="url(#clip0_1_1847)">
<path d="M10.5299 22.6889C10.3173 24.042 11.268 24.9811 12.4321 25.4491C16.8948 27.2435 23.1052 27.2435 27.5679 25.4491C28.732 24.9811 29.6827 24.042 29.4701 22.6889C29.3394 21.8574 28.6932 21.165 28.2144 20.4889C27.5873 19.5924 27.525 18.6146 27.5249 17.5743C27.5249 13.554 24.1559 10.2949 20 10.2949C15.8441 10.2949 12.4751 13.554 12.4751 17.5743C12.475 18.6146 12.4127 19.5924 11.7856 20.4889C11.3068 21.165 10.6606 21.8574 10.5299 22.6889Z" stroke="#545A62" stroke-width="1.5" stroke-linecap="round" stroke-linejoin="round"/>
<path d="M17 29.2949C17.7961 29.9168 18.8475 30.2949 20 30.2949C21.1525 30.2949 22.2039 29.9168 23 29.2949" stroke="#545A62" stroke-width="1.5" stroke-linecap="round" stroke-linejoin="round"/>
<circle cx="27" cy="13.2949" r="3.66667" fill="#F5A524" stroke="white" stroke-width="1.33333"/>
</g>
<defs>
<clipPath id="clip0_1_1847">
<rect width="24" height="24" fill="white" transform="translate(8 8.29492)"/>
</clipPath>
</defs>
</svg>
