<svg width="32" height="32" viewBox="0 0 32 32" fill="none" xmlns="http://www.w3.org/2000/svg">
<path d="M5.69475 24.4613C5.69475 24.4613 8.66677 20.667 16.0001 20.667C23.3334 20.667 26.3055 24.4613 26.3055 24.4613M16.0001 2.66699C8.63628 2.66699 2.66675 8.63653 2.66675 16.0003C2.66675 23.3641 8.63628 29.3337 16.0001 29.3337C23.3638 29.3337 29.3334 23.3641 29.3334 16.0003C29.3334 8.63653 23.3638 2.66699 16.0001 2.66699ZM16.0001 16.0003C18.2093 16.0003 20.0001 14.2095 20.0001 12.0003C20.0001 9.79119 18.2093 8.00033 16.0001 8.00033C13.7909 8.00033 12.0001 9.79119 12.0001 12.0003C12.0001 14.2095 13.7909 16.0003 16.0001 16.0003Z" stroke="#6C6C6C" stroke-width="2" stroke-linecap="round" stroke-linejoin="round"/>
</svg>
