<svg width="49" height="48" viewBox="0 0 49 48" fill="none" xmlns="http://www.w3.org/2000/svg">
<rect x="0.5" width="48" height="48" rx="24" fill="#E9B824" fill-opacity="0.12"/>
<path d="M23.8333 18.6665H35.428C36.2611 18.6665 36.6776 18.6665 36.9825 18.801C38.3315 19.3957 37.7284 20.8942 37.5015 21.971C37.4607 22.1645 37.328 22.3292 37.1421 22.4174C36.4261 22.7572 36.0179 23.3217 35.7887 23.9998M18.5 18.6665H13.572C12.739 18.6665 12.3224 18.6665 12.0175 18.801C10.6685 19.3957 11.2716 20.8942 11.4986 21.971C11.5394 22.1645 11.6719 22.3292 11.8579 22.4174C12.629 22.7833 13.169 23.4773 13.3108 24.2844L14.1009 28.7836C14.4485 30.7632 14.5674 33.5921 16.3021 34.9868C17.5749 35.9998 19.4088 35.9998 23.0767 35.9998H23.8333" stroke="#E9B824" stroke-width="2" stroke-linecap="round"/>
<path d="M27.1667 33.3333C27.1667 33.3333 28.5 33.3333 29.8333 36C29.8333 36 34.0687 29.3333 37.8333 28" stroke="#E9B824" stroke-width="2" stroke-linecap="round" stroke-linejoin="round"/>
<path d="M17.1667 22.6667L21.8333 12M28.5 12L31.8333 18.6667" stroke="#E9B824" stroke-width="2" stroke-linecap="round"/>
</svg>
