<svg width="24" height="25" viewBox="0 0 24 25" fill="none" xmlns="http://www.w3.org/2000/svg">
<path d="M16.8284 7.35726C18 8.41961 18 10.1294 18 13.549V15.0408C18 18.4604 18 20.1702 16.8284 21.2326C15.6569 22.2949 13.7712 22.2949 10 22.2949C6.22876 22.2949 4.34315 22.2949 3.17157 21.2326C2 20.1702 2 18.4604 2 15.0408V13.549C2 10.1294 2 8.41961 3.17157 7.35726C4.34315 6.29492 6.22876 6.29492 10 6.29492C13.7712 6.29492 15.6569 6.29492 16.8284 7.35726Z" stroke="#6C6C6C" stroke-width="1.5" stroke-linecap="round" stroke-linejoin="round"/>
<path d="M6.06641 6.29492C6.17344 4.90705 6.451 4.00996 7.1708 3.35726C8.34237 2.29492 10.228 2.29492 13.9992 2.29492C17.7705 2.29492 19.6561 2.29492 20.8277 3.35726C21.9992 4.41961 21.9992 6.12943 21.9992 9.54906V11.0408C21.9992 14.4604 21.9992 16.1702 20.8277 17.2326C20.1745 17.8248 19.2993 18.0869 17.9992 18.2029" stroke="#6C6C6C" stroke-width="1.5" stroke-linecap="round" stroke-linejoin="round"/>
<path d="M10.6911 10.8726L11.395 12.2921C11.491 12.4896 11.7469 12.6792 11.9629 12.7155L13.2388 12.9292C14.0547 13.0663 14.2467 13.6631 13.6587 14.2519L12.6668 15.252C12.4989 15.4214 12.4069 15.748 12.4589 15.9819L12.7428 17.2199C12.9668 18.1998 12.4509 18.5789 11.591 18.0667L10.3951 17.353C10.1791 17.2239 9.82315 17.2239 9.60318 17.353L8.40731 18.0667C7.5514 18.5789 7.03146 18.1958 7.25543 17.2199L7.5394 15.9819C7.5914 15.748 7.49941 15.4214 7.33143 15.252L6.33954 14.2519C5.7556 13.6631 5.94358 13.0663 6.75949 12.9292L8.03535 12.7155C8.24732 12.6792 8.5033 12.4896 8.59929 12.2921L9.30321 10.8726C9.68717 10.1024 10.3111 10.1024 10.6911 10.8726Z" stroke="#6C6C6C" stroke-width="1.5" stroke-linecap="round" stroke-linejoin="round"/>
</svg>
