<svg width="21" height="20" viewBox="0 0 21 20" fill="none" xmlns="http://www.w3.org/2000/svg">
<path d="M4.05925 15.2882C4.05925 15.2882 5.91676 12.9167 10.5001 12.9167C15.0834 12.9167 16.941 15.2882 16.941 15.2882M10.5001 1.66675C5.89771 1.66675 2.16675 5.39771 2.16675 10.0001C2.16675 14.6024 5.89771 18.3334 10.5001 18.3334C15.1024 18.3334 18.8334 14.6024 18.8334 10.0001C18.8334 5.39771 15.1024 1.66675 10.5001 1.66675ZM10.5001 10.0001C11.8808 10.0001 13.0001 8.88083 13.0001 7.50008C13.0001 6.11937 11.8808 5.00008 10.5001 5.00008C9.11933 5.00008 8.00008 6.11937 8.00008 7.50008C8.00008 8.88083 9.11933 10.0001 10.5001 10.0001Z" stroke="#6C6C6C" stroke-width="1.25" stroke-linecap="round" stroke-linejoin="round"/>
</svg>
