<svg width="21" height="20" viewBox="0 0 21 20" fill="none" xmlns="http://www.w3.org/2000/svg">
<path d="M16.058 1.66675H14.4747C12.658 1.66675 11.6997 2.62508 11.6997 4.44175V6.02508C11.6997 7.84175 12.658 8.80008 14.4747 8.80008H16.058C17.8747 8.80008 18.833 7.84175 18.833 6.02508V4.44175C18.833 2.62508 17.8747 1.66675 16.058 1.66675Z" stroke="#6C6C6C" stroke-width="1.25"/>
<path d="M6.53341 11.1914H4.95008C3.12508 11.1914 2.16675 12.1497 2.16675 13.9664V15.5497C2.16675 17.3747 3.12508 18.3331 4.94175 18.3331H6.52508C8.34175 18.3331 9.30008 17.3747 9.30008 15.5581V13.9747C9.30841 12.1497 8.35008 11.1914 6.53341 11.1914Z" stroke="#6C6C6C" stroke-width="1.25"/>
<path d="M5.74175 8.81675C7.71616 8.81675 9.31675 7.21616 9.31675 5.24175C9.31675 3.26733 7.71616 1.66675 5.74175 1.66675C3.76733 1.66675 2.16675 3.26733 2.16675 5.24175C2.16675 7.21616 3.76733 8.81675 5.74175 8.81675Z" stroke="#6C6C6C" stroke-width="1.25"/>
<path d="M15.2583 18.3348C17.2328 18.3348 18.8334 16.7342 18.8334 14.7598C18.8334 12.7854 17.2328 11.1848 15.2583 11.1848C13.2839 11.1848 11.6833 12.7854 11.6833 14.7598C11.6833 16.7342 13.2839 18.3348 15.2583 18.3348Z" stroke="#6C6C6C" stroke-width="1.25"/>
</svg>
