<svg width="24" height="25" viewBox="0 0 24 25" fill="none" xmlns="http://www.w3.org/2000/svg">
<path d="M13.5 15.2949H6C4.11438 15.2949 3.17157 15.2949 2.58579 14.7091C2 14.1233 2 13.1805 2 11.2949V7.29492C2 5.4093 2 4.46649 2.58579 3.88071C3.17157 3.29492 4.11438 3.29492 6 3.29492H18C19.8856 3.29492 20.8284 3.29492 21.4142 3.88071C22 4.46649 22 5.4093 22 7.29492V12.2949C22 13.2268 22 13.6927 21.8478 14.0603C21.6448 14.5503 21.2554 14.9397 20.7654 15.1427C20.3978 15.2949 19.9319 15.2949 19 15.2949" stroke="#008000" stroke-width="1.5" stroke-linecap="round" stroke-linejoin="round"/>
<path d="M14 9.29492C14 10.3994 13.1046 11.2949 12 11.2949C10.8954 11.2949 10 10.3994 10 9.29492C10 8.19035 10.8954 7.29492 12 7.29492C13.1046 7.29492 14 8.19035 14 9.29492Z" stroke="#008000" stroke-width="1.5" stroke-linecap="round" stroke-linejoin="round"/>
<path d="M13 17.2949C13 15.638 14.3431 14.2949 16 14.2949V12.2949C16 10.638 17.3431 9.29492 19 9.29492V14.7949C19 17.1295 19 18.2968 18.5277 19.1805C18.1548 19.8782 17.5833 20.4497 16.8856 20.8226C16.0019 21.2949 14.8346 21.2949 12.5 21.2949H12C10.1362 21.2949 9.20435 21.2949 8.46927 20.9904C7.48915 20.5844 6.71046 19.8057 6.30448 18.8256C6 18.0905 6 17.1587 6 15.2949" stroke="#008000" stroke-width="1.5" stroke-linecap="round" stroke-linejoin="round"/>
</svg>
