<svg width="24" height="25" viewBox="0 0 24 25" fill="none" xmlns="http://www.w3.org/2000/svg">
<path d="M14 18.2949C18.4183 18.2949 22 14.7132 22 10.2949C22 5.87664 18.4183 2.29492 14 2.29492C9.58172 2.29492 6 5.87664 6 10.2949C6 14.7132 9.58172 18.2949 14 18.2949Z" stroke="#6C6C6C" stroke-width="1.5" stroke-linecap="round"/>
<path d="M3.15657 11.2949C2.42523 12.4125 2 13.7484 2 15.1837C2 19.1111 5.18378 22.2949 9.11116 22.2949C10.5465 22.2949 11.8824 21.8697 13 21.1383" stroke="#6C6C6C" stroke-width="1.5" stroke-linecap="round"/>
<path d="M15.7712 8.50035C15.555 7.58822 14.4546 6.76515 13.1337 7.3809C11.8128 7.99665 11.603 9.9778 13.601 10.1883C14.5041 10.2834 15.0928 10.0779 15.6319 10.6592C16.1709 11.2405 16.2711 12.8571 14.8931 13.2928C13.5151 13.7285 12.1506 13.0477 12.002 12.0811M13.9862 6.29932V7.16836M13.9862 13.4269V14.2993" stroke="#6C6C6C" stroke-width="1.5" stroke-linecap="round" stroke-linejoin="round"/>
</svg>
