<svg width="24" height="25" viewBox="0 0 24 25" fill="none" xmlns="http://www.w3.org/2000/svg">
<path d="M15 17.9199C14.9264 19.7718 13.3831 21.3443 11.3156 21.2937C10.8346 21.2819 10.2401 21.1143 9.05112 20.7789C6.18961 19.9717 3.70555 18.6152 3.10956 15.5764C3 15.0179 3 14.3893 3 13.1322V11.4576C3 10.2005 3 9.57197 3.10956 9.01338C3.70555 5.97457 6.18961 4.61808 9.05112 3.81095C10.2401 3.47556 10.8346 3.30787 11.3156 3.29611C13.3831 3.24553 14.9264 4.81799 15 6.66993" stroke="#FF0000" stroke-width="1.5" stroke-linecap="round"/>
<path d="M21 12.2949H10M21 12.2949C21 11.5947 19.0057 10.2865 18.5 9.79492M21 12.2949C21 12.9951 19.0057 14.3034 18.5 14.7949" stroke="#FF0000" stroke-width="1.5" stroke-linecap="round" stroke-linejoin="round"/>
</svg>
