<svg width="24" height="25" viewBox="0 0 24 25" fill="none" xmlns="http://www.w3.org/2000/svg">
<path d="M12 3.29492H5C4.46957 3.29492 3.96086 3.50564 3.58579 3.88071C3.21071 4.25578 3 4.76449 3 5.29492V19.2949C3 19.8254 3.21071 20.3341 3.58579 20.7091C3.96086 21.0842 4.46957 21.2949 5 21.2949H19C19.5304 21.2949 20.0391 21.0842 20.4142 20.7091C20.7893 20.3341 21 19.8254 21 19.2949V12.2949" stroke="#6C6C6C" stroke-width="2" stroke-linecap="round" stroke-linejoin="round"/>
<path d="M18.3751 2.92015C18.7729 2.52232 19.3125 2.29883 19.8751 2.29883C20.4377 2.29883 20.9773 2.52232 21.3751 2.92015C21.7729 3.31797 21.9964 3.85754 21.9964 4.42015C21.9964 4.98276 21.7729 5.52232 21.3751 5.92015L12.3621 14.9341C12.1246 15.1714 11.8313 15.3451 11.5091 15.4391L8.63609 16.2791C8.55005 16.3042 8.45883 16.3057 8.372 16.2835C8.28517 16.2613 8.20592 16.2161 8.14254 16.1527C8.07916 16.0893 8.03398 16.0101 8.01174 15.9232C7.98949 15.8364 7.991 15.7452 8.01609 15.6591L8.85609 12.7861C8.95062 12.4642 9.12463 12.1712 9.36209 11.9341L18.3751 2.92015Z" stroke="#6C6C6C" stroke-width="2" stroke-linecap="round" stroke-linejoin="round"/>
</svg>
