<svg width="24" height="25" viewBox="0 0 24 25" fill="none" xmlns="http://www.w3.org/2000/svg">
<path d="M13 22.2949C12.1818 22.2949 11.4002 21.9537 9.83691 21.2713C8.01233 20.4749 6.61554 19.8652 5.64648 19.2949H2M13 22.2949C13.8182 22.2949 14.5998 21.9537 16.1631 21.2713C20.0544 19.5728 22 18.7235 22 17.2949V6.79492M13 22.2949V11.2949M4 6.79492V9.79492" stroke="#6C6C6C" stroke-width="1.5" stroke-linecap="round" stroke-linejoin="round"/>
<path d="M9.32592 9.9863L6.40472 8.57277C4.80157 7.79702 4 7.40915 4 6.79492C4 6.18069 4.80157 5.79282 6.40472 5.01707L9.32592 3.60354C11.1288 2.73113 12.0303 2.29492 13 2.29492C13.9697 2.29492 14.8712 2.73112 16.6741 3.60354L19.5953 5.01707C21.1984 5.79282 22 6.18069 22 6.79492C22 7.40915 21.1984 7.79702 19.5953 8.57277L16.6741 9.9863C14.8712 10.8587 13.9697 11.2949 13 11.2949C12.0303 11.2949 11.1288 10.8587 9.32592 9.9863Z" stroke="#6C6C6C" stroke-width="1.5" stroke-linecap="round" stroke-linejoin="round"/>
<path d="M18.1366 4.31055L7.86719 9.27977" stroke="#6C6C6C" stroke-width="1.5" stroke-linecap="round" stroke-linejoin="round"/>
<path d="M2 13.2949H5" stroke="#6C6C6C" stroke-width="1.5" stroke-linecap="round" stroke-linejoin="round"/>
<path d="M2 16.2949H5" stroke="#6C6C6C" stroke-width="1.5" stroke-linecap="round" stroke-linejoin="round"/>
</svg>
