<svg width="24" height="25" viewBox="0 0 24 25" fill="none" xmlns="http://www.w3.org/2000/svg">
<path d="M3.77762 12.2373C2.8296 10.5842 2.37185 9.2344 2.09584 7.86613C1.68762 5.8425 2.62181 3.86573 4.16938 2.60439C4.82345 2.0713 5.57323 2.25344 5.96 2.94732L6.83318 4.51383C7.52529 5.75549 7.87134 6.37631 7.8027 7.03451C7.73407 7.69271 7.26737 8.22878 6.33397 9.30093L3.77762 12.2373ZM3.77762 12.2373C5.69651 15.5832 8.70784 18.5962 12.0576 20.5173M12.0576 20.5173C13.7107 21.4653 15.0605 21.9231 16.4288 22.1991C18.4524 22.6073 20.4292 21.6731 21.6905 20.1255C22.2236 19.4715 22.0415 18.7217 21.3476 18.3349L19.7811 17.4617C18.5394 16.7696 17.9186 16.4236 17.2604 16.4922C16.6022 16.5608 16.0661 17.0275 14.994 17.9609L12.0576 20.5173Z" stroke="#6C6C6C" stroke-width="1.5" stroke-linejoin="round"/>
</svg>
