<svg width="20" height="20" viewBox="0 0 20 20" fill="none" xmlns="http://www.w3.org/2000/svg">
<path d="M12.9383 13.3143H15.6377C16.7037 13.2963 18.3322 13.8573 18.3322 15.8808C18.3322 17.9804 16.3226 18.3324 15.6377 18.3324C14.9528 18.3324 8.48469 18.3324 6.62026 18.3324C4.53194 18.3324 1.66668 17.9094 1.66669 14.3067V6.66895H18.3322V10.4331M12.9383 13.3143C12.9428 13.136 13.0186 12.9593 13.1659 12.8308L14.5841 11.6473M12.9383 13.3143C12.9335 13.5044 13.01 13.6963 13.1678 13.8329L14.5841 14.9859" stroke="white" stroke-width="1.25" stroke-linecap="round" stroke-linejoin="round"/>
<path d="M1.66992 6.65913L2.43786 4.7417C3.06101 3.25156 3.37259 2.50649 4.00413 2.08699C4.63568 1.66748 5.44578 1.66748 7.06597 1.66748H12.9154C14.5356 1.66748 15.3457 1.66748 15.9772 2.08699C16.6088 2.50649 16.9203 3.25156 17.5435 4.7417L18.3317 6.6621" stroke="white" stroke-width="1.25" stroke-linecap="round"/>
<path d="M9.96906 6.66748V1.66748" stroke="white" stroke-width="1.25" stroke-linecap="round"/>
<path d="M8.30243 10.001H11.6358" stroke="white" stroke-width="1.25" stroke-linecap="round"/>
</svg>
