<svg width="24" height="25" viewBox="0 0 24 25" fill="none" xmlns="http://www.w3.org/2000/svg">
<path d="M17 11.0994C17 10.7537 17 10.5809 17.052 10.4269C17.2032 9.97936 17.6018 9.80568 18.0011 9.6238C18.45 9.41934 18.6744 9.31711 18.8968 9.29912C19.1493 9.2787 19.4022 9.3331 19.618 9.45421C19.9041 9.61476 20.1036 9.91985 20.3079 10.1679C21.2513 11.3137 21.7229 11.8867 21.8955 12.5185C22.0348 13.0283 22.0348 13.5615 21.8955 14.0713C21.6438 14.9928 20.8485 15.7653 20.2598 16.4803C19.9587 16.846 19.8081 17.0289 19.618 17.1356C19.4022 17.2567 19.1493 17.3111 18.8968 17.2907C18.6744 17.2727 18.45 17.1705 18.0011 16.966C17.6018 16.7841 17.2032 16.6105 17.052 16.1629C17 16.0089 17 15.8361 17 15.4904V11.0994Z" stroke="#6C6C6C" stroke-width="1.5"/>
<path d="M7 11.0995C7 10.6643 6.98778 10.2731 6.63591 9.96713C6.50793 9.85583 6.33825 9.77854 5.99891 9.62398C5.55001 9.41951 5.32556 9.31728 5.10316 9.29929C4.43591 9.24533 4.07692 9.70074 3.69213 10.1681C2.74875 11.3139 2.27706 11.8868 2.10446 12.5186C1.96518 13.0285 1.96518 13.5617 2.10446 14.0715C2.3562 14.993 3.15152 15.7654 3.74021 16.4805C4.11129 16.9312 4.46577 17.3424 5.10316 17.2909C5.32556 17.2729 5.55001 17.1706 5.99891 16.9662C6.33825 16.8116 6.50793 16.7343 6.63591 16.623C6.98778 16.317 7 15.9259 7 15.4906V11.0995Z" stroke="#6C6C6C" stroke-width="1.5"/>
<path d="M5 9.29492C5 5.98121 8.13401 3.29492 12 3.29492C15.866 3.29492 19 5.98121 19 9.29492" stroke="#6C6C6C" stroke-width="1.5" stroke-linecap="square" stroke-linejoin="round"/>
<path d="M19 17.2949V18.0949C19 19.8622 17.2091 21.2949 15 21.2949H13" stroke="#6C6C6C" stroke-width="1.5" stroke-linecap="round" stroke-linejoin="round"/>
</svg>
