<svg width="36" height="36" viewBox="0 0 36 36" fill="none" xmlns="http://www.w3.org/2000/svg">
<circle cx="18" cy="18" r="18" fill="white"/>
<path d="M18 28C23.5228 28 28 23.5228 28 18C28 12.4771 23.5228 8 18 8C12.4771 8 8 12.4771 8 18C8 19.3789 8.27907 20.6926 8.78382 21.8877C9.06278 22.5481 9.20226 22.8784 9.21953 23.128C9.2368 23.3776 9.16334 23.6521 9.01642 24.2012L8 28L11.7988 26.9836C12.3479 26.8367 12.6224 26.7632 12.872 26.7805C13.1216 26.7977 13.4519 26.9372 14.1124 27.2162C15.3075 27.7209 16.6211 28 18 28Z" stroke="#E9B824" stroke-width="1.5" stroke-linejoin="round"/>
<path d="M14.5882 18.3773L15.4591 17.2956C15.8262 16.8397 16.2799 16.4153 16.3155 15.8083C16.3244 15.6549 16.2166 14.9666 16.0008 13.5899C15.916 13.0488 15.4109 13 14.9733 13C14.4031 13 14.1181 13 13.835 13.1293C13.4771 13.2928 13.1098 13.7523 13.0292 14.1373C12.9654 14.442 13.0128 14.6519 13.1076 15.0717C13.5102 16.8548 14.4548 18.6158 15.9195 20.0805C17.3842 21.5452 19.1452 22.4898 20.9283 22.8924C21.3481 22.9872 21.558 23.0346 21.8627 22.9708C22.2477 22.8902 22.7072 22.5229 22.8707 22.165C23 21.8819 23 21.5969 23 21.0267C23 20.5891 22.9512 20.084 22.4101 19.9992C21.0334 19.7834 20.3451 19.6756 20.1917 19.6845C19.5847 19.7201 19.1603 20.1738 18.7044 20.5409L17.6227 21.4118" stroke="#E9B824" stroke-width="1.5"/>
</svg>
