<svg width="36" height="36" viewBox="0 0 36 36" fill="none" xmlns="http://www.w3.org/2000/svg">
<circle cx="18" cy="18" r="18" fill="white"/>
<path d="M21 15.5C21 17.1569 19.6569 18.5 18 18.5C16.3431 18.5 15 17.1569 15 15.5C15 13.8432 16.3431 12.5 18 12.5C19.6569 12.5 21 13.8432 21 15.5Z" stroke="#E9B824" stroke-width="1.5"/>
<path d="M18 8C22.0588 8 25.5 11.428 25.5 15.5869C25.5 19.812 22.0028 22.777 18.7725 24.7932C18.5371 24.9287 18.2709 25 18 25C17.7291 25 17.4629 24.9287 17.2275 24.7932C14.0032 22.7573 10.5 19.8266 10.5 15.5869C10.5 11.428 13.9412 8 18 8Z" stroke="#E9B824" stroke-width="1.5"/>
<path d="M24 26C24 27.1046 21.3137 28 18 28C14.6863 28 12 27.1046 12 26" stroke="#E9B824" stroke-width="1.5" stroke-linecap="round"/>
</svg>
