<svg width="36" height="36" viewBox="0 0 36 36" fill="none" xmlns="http://www.w3.org/2000/svg">
<circle cx="18" cy="18" r="18" fill="white"/>
<path d="M9.77762 17.9424C8.8296 16.2893 8.37185 14.9395 8.09584 13.5712C7.68762 11.5476 8.62181 9.57081 10.1694 8.30947C10.8234 7.77638 11.5732 7.95852 11.96 8.6524L12.8332 10.2189C13.5253 11.4606 13.8713 12.0814 13.8027 12.7396C13.7341 13.3978 13.2674 13.9339 12.334 15.006L9.77762 17.9424ZM9.77762 17.9424C11.6965 21.2883 14.7078 24.3013 18.0576 26.2224M18.0576 26.2224C19.7107 27.1704 21.0605 27.6282 22.4288 27.9042C24.4524 28.3124 26.4292 27.3782 27.6905 25.8306C28.2236 25.1766 28.0415 24.4268 27.3476 24.04L25.7811 23.1668C24.5394 22.4747 23.9186 22.1287 23.2604 22.1973C22.6022 22.2659 22.0661 22.7326 20.994 23.666L18.0576 26.2224Z" stroke="#E9B824" stroke-width="1.5" stroke-linejoin="round"/>
</svg>
